<?xml version="1.0" encoding="utf-8"?>
<!-- Generator: Adobe Illustrator 26.0.1, SVG Export Plug-In . SVG Version: 6.00 Build 0)  -->
<svg version="1.1" id="Ebene_1" xmlns="http://www.w3.org/2000/svg" xmlns:xlink="http://www.w3.org/1999/xlink" x="0px" y="0px"
	 viewBox="0 0 135 135" style="enable-background:new 0 0 135 135;" xml:space="preserve">
<style type="text/css">
	.st0{clip-path:url(#SVGID_00000170261684354241287990000002712843359068163772_);}
	.st1{clip-path:url(#SVGID_00000021082591839940668390000017696643922421537442_);fill:#FFEE00;}
	.st2{clip-path:url(#SVGID_00000021082591839940668390000017696643922421537442_);fill:#6D767F;}
	.st3{clip-path:url(#SVGID_00000021082591839940668390000017696643922421537442_);fill:#9EB735;}
	.st4{clip-path:url(#SVGID_00000182528959725991809130000002620014780926571422_);}
	.st5{filter:url(#Adobe_OpacityMaskFilter);}
	
		.st6{clip-path:url(#SVGID_00000154424872288399229080000015878623078870069921_);fill:url(#SVGID_00000086659354389829155320000002847468326658187451_);}
	
		.st7{clip-path:url(#SVGID_00000154424872288399229080000015878623078870069921_);mask:url(#SVGID_00000127762267734723775580000001059523093223784868_);}
	.st8{clip-path:url(#SVGID_00000131345659456519561490000011671436332931441323_);fill:#686C1E;}
	.st9{clip-path:url(#SVGID_00000155853640192574362890000014092774044248453519_);fill:#608DB7;}
	.st10{clip-path:url(#SVGID_00000087381532937111841620000015650456468611622532_);}
	.st11{filter:url(#Adobe_OpacityMaskFilter_00000131333048474916954430000004975574490142605752_);}
	
		.st12{clip-path:url(#SVGID_00000103233611408799777620000011859760478003205043_);fill:url(#SVGID_00000096057247700705717140000006916212534513563302_);}
	
		.st13{clip-path:url(#SVGID_00000103233611408799777620000011859760478003205043_);mask:url(#SVGID_00000070090700142374932900000014346494136643114909_);}
	.st14{clip-path:url(#SVGID_00000092427389244913314950000006276689336207341247_);fill:#38526C;}
	.st15{clip-path:url(#SVGID_00000150091822402003972880000017416956089106679952_);fill:#E4B91F;}
	.st16{clip-path:url(#SVGID_00000004525901071494036500000017231513092718346892_);}
	.st17{filter:url(#Adobe_OpacityMaskFilter_00000096051306832220768260000018373930994036579230_);}
	
		.st18{clip-path:url(#SVGID_00000081638136211082315280000007760713090687506838_);fill:url(#SVGID_00000056419478140518428930000006344738938889097623_);}
	
		.st19{clip-path:url(#SVGID_00000081638136211082315280000007760713090687506838_);mask:url(#SVGID_00000155123584145395506480000016854571076517242766_);}
	.st20{clip-path:url(#SVGID_00000171718206325881444640000004643305760977015695_);fill:#7E6A1A;}
</style>
<g>
	<defs>
		<rect id="SVGID_1_" width="135" height="135"/>
	</defs>
	<clipPath id="SVGID_00000147181146942420879590000000866401974753950864_">
		<use xlink:href="#SVGID_1_"  style="overflow:visible;"/>
	</clipPath>
	<g style="clip-path:url(#SVGID_00000147181146942420879590000000866401974753950864_);">
		<defs>
			<rect id="SVGID_00000109024108731711756780000015468516768304758714_" width="135" height="135"/>
		</defs>
		<clipPath id="SVGID_00000062900055432090970480000007579989847280298943_">
			<use xlink:href="#SVGID_00000109024108731711756780000015468516768304758714_"  style="overflow:visible;"/>
		</clipPath>
		<path style="clip-path:url(#SVGID_00000062900055432090970480000007579989847280298943_);fill:#FFEE00;" d="M0,66.3
			c0-0.1,0-0.2,0-0.2C0,66.1,0,66.2,0,66.3"/>
		<path style="clip-path:url(#SVGID_00000062900055432090970480000007579989847280298943_);fill:#FFEE00;" d="M0,68.7
			c0-0.4,0-0.8,0-1.2C0,67.9,0,68.3,0,68.7"/>
		<path style="clip-path:url(#SVGID_00000062900055432090970480000007579989847280298943_);fill:#FFEE00;" d="M0,69
			C0.2,77.4,2,85.9,5.4,94C2.1,86.1,0.2,77.6,0,69"/>
		<path style="clip-path:url(#SVGID_00000062900055432090970480000007579989847280298943_);fill:#FFEE00;" d="M6.6,38.5
			c-0.2,0.4-0.4,0.8-0.5,1.2C6.2,39.3,6.4,38.9,6.6,38.5"/>
		<path style="clip-path:url(#SVGID_00000062900055432090970480000007579989847280298943_);fill:#FFEE00;" d="M5.4,41
			c0.1-0.2,0.1-0.3,0.2-0.5C5.6,40.7,5.5,40.8,5.4,41"/>
		<path style="clip-path:url(#SVGID_00000062900055432090970480000007579989847280298943_);fill:#FFEE00;" d="M5.6,94.5
			c0.1,0.3,0.2,0.6,0.4,0.8C5.9,95.1,5.8,94.8,5.6,94.5"/>
		<path style="clip-path:url(#SVGID_00000062900055432090970480000007579989847280298943_);fill:#FFEE00;" d="M6.6,96.5
			c0,0.1,0.1,0.1,0.1,0.2C6.6,96.6,6.6,96.6,6.6,96.5"/>
		<path style="clip-path:url(#SVGID_00000062900055432090970480000007579989847280298943_);fill:#6D767F;" d="M104.9,91.9
			c0.1-0.3,0.3-0.5,0.5-0.7c0.2-0.2,0.5-0.3,0.8-0.3c0.3,0,0.6,0.1,0.9,0.2c0.3,0.1,0.4,0.3,0.4,0.4v3c0,0,0,0.1-0.1,0.2
			c-0.1,0.1-0.1,0.1-0.2,0.2c-0.1,0-0.2,0.1-0.3,0.1c-0.1,0-0.3,0-0.4,0c-0.3,0-0.5-0.1-0.7-0.2c-0.2-0.1-0.4-0.3-0.5-0.5
			c-0.1-0.2-0.2-0.4-0.3-0.7c-0.1-0.2-0.1-0.5-0.1-0.8C104.7,92.5,104.8,92.2,104.9,91.9 M103.9,94.1c0.1,0.3,0.3,0.6,0.5,0.8
			c0.2,0.2,0.4,0.4,0.7,0.5c0.3,0.1,0.5,0.2,0.8,0.2c0.3,0,0.5-0.1,0.9-0.3c0.3-0.2,0.6-0.3,0.7-0.4c0,0,0,0,0,0c0,0,0,0,0,0.1v0.4
			c0,0.1,0,0.1,0,0.2c0,0.1,0,0.1,0.1,0.1l0.1,0c0.1,0,0.2,0,0.3-0.1c0.1,0,0.2-0.1,0.4-0.1c0.1,0,0.3-0.1,0.4-0.1
			c0.1,0,0.3,0,0.4,0c0,0,0.1,0,0.1-0.1c0-0.1,0-0.1,0-0.1c0-0.1,0-0.1,0-0.2c0,0,0,0,0,0c0,0-0.1,0-0.1,0c0,0-0.1,0-0.1,0
			c0,0-0.1,0-0.1,0c0,0-0.1,0-0.1,0c0,0-0.1,0-0.1-0.1c0,0-0.1,0-0.1-0.1c-0.1-0.1-0.1-0.5-0.1-1.2v-5.1c0-0.4,0-0.8,0.1-1
			c0,0,0-0.1,0-0.1c0,0-0.1-0.1-0.1-0.1c-0.6,0.3-1.1,0.4-1.7,0.5c0,0,0,0,0,0.1c0,0.1,0,0.1,0,0.2c0,0,0,0.1,0,0.1
			c0.4,0,0.7,0.1,0.7,0.2c0,0.1,0.1,0.3,0.1,0.6v1.3c0,0.2,0,0.2-0.1,0.2c-0.1,0-0.2,0-0.4-0.1c-0.2,0-0.3,0-0.4,0
			c-0.2,0-0.5,0-0.7,0.1c-0.3,0.1-0.5,0.2-0.8,0.4c-0.3,0.2-0.5,0.4-0.7,0.6c-0.2,0.2-0.4,0.5-0.5,0.8c-0.1,0.3-0.2,0.6-0.2,0.9
			C103.7,93.5,103.8,93.8,103.9,94.1 M97.4,91.2c0.1,0,0.1,0,0.2,0c0.1,0,0.2,0,0.3,0.1c0.1,0,0.2,0.1,0.2,0.1
			c0,0.1,0.1,0.3,0.1,0.7v2.2c0,0.5,0,0.7-0.1,0.9c0,0.1-0.1,0.1-0.3,0.1c-0.2,0-0.3,0.1-0.4,0.1c0,0,0,0.1,0,0.2c0,0.1,0,0.1,0,0.2
			c0.1,0,0.2,0,0.4,0c0.2,0,0.3,0,0.4,0c0.1,0,0.3,0,0.4,0c0.1,0,0.3,0,0.4,0c0.1,0,0.3,0,0.4,0c0.2,0,0.3,0,0.4,0c0,0,0-0.1,0-0.2
			s0-0.1,0-0.2c0,0-0.1,0-0.1,0c0,0-0.1,0-0.1,0c-0.1,0-0.1,0-0.2,0c-0.1,0-0.1,0-0.2,0c0,0-0.1,0-0.1,0c0,0,0,0-0.1-0.1
			c0-0.1-0.1-0.4-0.1-0.9v-2.5c0,0,0.1-0.1,0.2-0.2c0.1-0.1,0.3-0.2,0.5-0.3c0.2-0.1,0.3-0.1,0.5-0.1c0.2,0,0.4,0,0.6,0.1
			c0.1,0.1,0.3,0.2,0.4,0.3c0.1,0.2,0.2,0.4,0.2,0.6c0,0.2,0.1,0.5,0.1,0.9v1.2c0,0.5,0,0.7-0.1,0.9c0,0.1-0.1,0.1-0.3,0.1
			c-0.2,0-0.3,0.1-0.4,0.1c0,0,0,0.1,0,0.2c0,0.1,0,0.1,0,0.2c0.1,0,0.2,0,0.4,0c0.2,0,0.3,0,0.4,0c0.1,0,0.3,0,0.4,0
			c0.1,0,0.3,0,0.4,0c0.1,0,0.3,0,0.4,0c0.2,0,0.3,0,0.4,0c0,0,0-0.1,0-0.2c0-0.1,0-0.2,0-0.2c-0.1,0-0.1,0-0.2,0
			c-0.1,0-0.2,0-0.3-0.1c-0.1,0-0.2-0.1-0.2-0.1c0-0.1-0.1-0.4-0.1-0.9v-1.3c0-0.3,0-0.6,0-0.8c0-0.2,0-0.4-0.1-0.6
			c0-0.2-0.1-0.4-0.2-0.5c-0.1-0.1-0.2-0.2-0.3-0.3c-0.1-0.1-0.2-0.2-0.4-0.2c-0.2,0-0.3-0.1-0.6-0.1c-0.1,0-0.3,0-0.5,0.1
			c-0.2,0.1-0.3,0.1-0.5,0.2c-0.1,0.1-0.3,0.2-0.4,0.3c-0.1,0.1-0.2,0.2-0.3,0.2c0,0,0,0,0,0c0,0,0,0,0,0c0-0.1,0-0.3,0.1-0.7
			c0,0,0-0.1,0-0.1c0,0-0.1-0.1-0.1-0.1c-0.5,0.2-1,0.4-1.7,0.5c0,0,0,0.1,0,0.1v0C97.3,91.1,97.3,91.2,97.4,91.2 M93.5,93.6
			c0.1-0.2,0.3-0.3,0.5-0.4c0.1,0,0.5-0.2,1.1-0.3v1.6c0,0,0,0.1-0.1,0.1c-0.1,0.1-0.2,0.1-0.3,0.2s-0.2,0.1-0.3,0.1
			c-0.1,0-0.2,0.1-0.3,0.1c-0.1,0-0.3,0-0.4-0.1c-0.1-0.1-0.2-0.2-0.3-0.3c-0.1-0.1-0.1-0.3-0.1-0.4C93.3,94,93.4,93.8,93.5,93.6
			 M92.7,95.3c0.3,0.3,0.6,0.4,1,0.4c0.2,0,0.4-0.1,0.8-0.3c0.3-0.2,0.6-0.4,0.7-0.5c0,0.2,0.1,0.4,0.3,0.5c0.1,0.2,0.3,0.2,0.5,0.2
			c0.1,0,0.3-0.1,0.5-0.2c0.2-0.1,0.3-0.2,0.4-0.3c0-0.1,0.1-0.1,0.1-0.2c0-0.1,0-0.1-0.1-0.1c0,0,0,0,0,0c0,0,0,0,0,0
			c0,0,0,0-0.1,0c0,0-0.1,0-0.1,0c0,0-0.1,0-0.1,0c0,0-0.1,0-0.1,0c-0.2,0-0.4-0.2-0.4-0.6V92c0-0.4-0.1-0.8-0.4-1.1
			c-0.3-0.3-0.6-0.5-0.9-0.5c-0.2,0-0.4,0-0.6,0.1c-0.2,0.1-0.4,0.2-0.6,0.3c-0.2,0.1-0.4,0.2-0.5,0.3c-0.1,0.1-0.3,0.2-0.4,0.3
			c0,0,0,0,0,0.1c0,0,0,0.1,0,0.1c0,0,0,0.1,0,0.1c0,0.1,0,0.2,0.1,0.3c0.1,0.1,0.2,0.2,0.3,0.2c0.1,0,0.3,0,0.4-0.1
			c0.1-0.1,0.2-0.2,0.2-0.4c0-0.2,0.1-0.4,0.2-0.6c0.1-0.1,0.2-0.2,0.4-0.2c0.2,0,0.4,0.1,0.5,0.2c0.2,0.1,0.3,0.3,0.4,0.4
			c0.1,0.2,0.1,0.4,0.1,0.5v0.3c0,0.1,0,0.1,0,0.1c0,0,0,0.1,0,0.1c0,0,0,0,0,0c0,0,0,0-0.1,0c-0.1,0-0.2,0.1-0.4,0.2
			c-0.2,0.1-0.4,0.1-0.5,0.2c-0.2,0.1-0.4,0.1-0.6,0.2c-0.2,0.1-0.4,0.1-0.6,0.2c-0.2,0.1-0.3,0.2-0.4,0.3c-0.1,0.2-0.2,0.4-0.2,0.6
			C92.3,94.7,92.4,95,92.7,95.3 M89,95.5c0,0.1,0,0.1,0,0.2c0.1,0,0.2,0,0.4,0c0.2,0,0.3,0,0.4,0c0.1,0,0.3,0,0.4,0s0.3,0,0.4,0
			c0.1,0,0.3,0,0.4,0c0.2,0,0.3,0,0.4,0c0,0,0-0.1,0-0.2c0,0,0,0,0,0c0-0.1,0-0.1,0-0.2c0,0-0.1,0-0.2,0c-0.1,0-0.2,0-0.2,0
			s-0.2,0-0.2-0.1c-0.1,0-0.1-0.1-0.1-0.1c0-0.1-0.1-0.4-0.1-0.9v-5.6c0-0.4,0-0.8,0.1-1c0,0,0-0.1,0-0.1c0,0-0.1-0.1-0.1-0.1
			c-0.6,0.3-1.1,0.4-1.7,0.5c0,0,0,0,0,0.1c0,0.1,0,0.1,0,0.2c0,0,0,0.1,0,0.1c0.4,0,0.7,0.1,0.7,0.2c0,0.1,0.1,0.3,0.1,0.6v5.2
			c0,0.5,0,0.7-0.1,0.9c0,0.1-0.1,0.1-0.3,0.1c-0.2,0-0.3,0.1-0.4,0.1C89.1,95.3,89,95.4,89,95.5 M82.9,95.5c0,0.1,0,0.1,0,0.2
			c0.1,0,0.2,0,0.4,0c0.2,0,0.3,0,0.4,0c0.1,0,0.3,0,0.4,0s0.3,0,0.4,0c0.1,0,0.3,0,0.4,0c0.2,0,0.3,0,0.4,0c0,0,0-0.1,0-0.2
			s0-0.1,0-0.2c0,0-0.1,0-0.2,0c-0.1,0-0.2,0-0.2,0c-0.1,0-0.2,0-0.2-0.1c-0.1,0-0.1-0.1-0.1-0.1c0-0.1-0.1-0.4-0.1-0.9v-2.5
			c0,0,0.1-0.1,0.2-0.2c0.1-0.1,0.3-0.2,0.5-0.3c0.2-0.1,0.3-0.1,0.5-0.1c0.2,0,0.4,0,0.6,0.1c0.1,0.1,0.3,0.2,0.4,0.3
			c0.1,0.2,0.2,0.4,0.2,0.6c0,0.2,0.1,0.5,0.1,0.9v1.2c0,0.5,0,0.7-0.1,0.9c0,0.1-0.1,0.1-0.3,0.1c-0.2,0-0.3,0.1-0.4,0.1
			c0,0,0,0.1,0,0.2c0,0.1,0,0.1,0,0.2c0.1,0,0.2,0,0.4,0c0.2,0,0.3,0,0.4,0c0.1,0,0.3,0,0.4,0c0.1,0,0.3,0,0.4,0c0.1,0,0.3,0,0.4,0
			c0.2,0,0.3,0,0.4,0c0,0,0-0.1,0-0.2v0c0-0.1,0-0.1,0-0.2c-0.1,0-0.1,0-0.2,0c-0.1,0-0.2,0-0.3-0.1c-0.1,0-0.2-0.1-0.2-0.1
			c0-0.1-0.1-0.4-0.1-0.9v-1.3c0-0.3,0-0.5,0-0.7s0-0.4-0.1-0.6c0-0.2-0.1-0.3-0.1-0.5c0-0.1-0.1-0.2-0.2-0.4
			c-0.1-0.1-0.2-0.2-0.3-0.3c-0.1-0.1-0.2-0.1-0.4-0.1c-0.1,0-0.3-0.1-0.5-0.1c-0.1,0-0.3,0-0.5,0.1c-0.2,0.1-0.3,0.1-0.5,0.2
			c-0.1,0.1-0.3,0.2-0.4,0.3c-0.1,0.1-0.2,0.2-0.3,0.2c0,0,0,0,0,0c0,0,0,0,0,0v-2.7c0-0.4,0-0.8,0.1-1c0,0,0-0.1,0-0.1
			c0,0-0.1-0.1-0.1-0.1c-0.6,0.3-1.1,0.4-1.7,0.5c0,0,0,0,0,0.1c0,0.1,0,0.1,0,0.2c0,0,0,0.1,0,0.1c0.4,0,0.7,0.1,0.7,0.2
			c0,0.1,0.1,0.3,0.1,0.6v5.2c0,0.5,0,0.7-0.1,0.9c0,0.1-0.1,0.1-0.3,0.1c-0.2,0-0.3,0.1-0.4,0.1C82.9,95.3,82.9,95.4,82.9,95.5
			 M78.3,94c0.1,0.2,0.2,0.5,0.3,0.7c0.1,0.2,0.3,0.4,0.5,0.5c0.2,0.2,0.4,0.3,0.7,0.4c0.3,0.1,0.5,0.1,0.8,0.1c0.2,0,0.4,0,0.6-0.1
			c0.2-0.1,0.4-0.2,0.5-0.3c0.1-0.1,0.3-0.2,0.4-0.3c0.1-0.1,0.2-0.2,0.2-0.3c0-0.1,0.1-0.1,0.1-0.2c0,0,0-0.1,0-0.1c0,0,0,0,0-0.1
			c0,0,0,0,0,0c0,0-0.1,0.1-0.1,0.1c0,0-0.1,0.1-0.2,0.2c-0.1,0.1-0.2,0.1-0.3,0.2c-0.1,0-0.2,0.1-0.3,0.1c-0.1,0-0.2,0-0.4,0
			c-0.3,0-0.5,0-0.8-0.1c-0.2-0.1-0.4-0.2-0.6-0.4c-0.2-0.2-0.3-0.4-0.4-0.6c-0.1-0.3-0.2-0.6-0.2-0.9c0-0.2,0-0.5,0.1-0.7
			c0.1-0.2,0.1-0.4,0.2-0.6c0.1-0.2,0.2-0.3,0.3-0.4c0.1-0.1,0.2-0.2,0.4-0.3c0.1-0.1,0.3-0.1,0.4-0.1c0.1,0,0.3,0,0.3,0
			c0.1,0,0.2,0.1,0.3,0.2c0,0,0.1,0.1,0.2,0.2c0.1,0.1,0.2,0.1,0.3,0.2c0.1,0.1,0.2,0.1,0.2,0.1c0.1,0,0.2,0,0.3-0.1
			c0.1-0.1,0.1-0.2,0.1-0.4c0-0.1,0-0.1,0-0.2c0-0.1-0.1-0.1-0.1-0.1c-0.3-0.2-0.6-0.3-1.1-0.3c-0.2,0-0.4,0-0.6,0.1
			c-0.2,0.1-0.4,0.2-0.7,0.3c-0.2,0.1-0.4,0.3-0.6,0.4c-0.2,0.2-0.4,0.4-0.5,0.6c-0.1,0.2-0.3,0.4-0.3,0.7c-0.1,0.3-0.1,0.5-0.1,0.8
			C78.2,93.5,78.2,93.8,78.3,94 M73.9,94.9c0,0.3,0.1,0.5,0.1,0.6c0.1,0,0.3,0.1,0.4,0.1c0.2,0,0.4,0.1,0.5,0.1c0.1,0,0.3,0,0.5,0
			c0.3,0,0.6-0.1,0.9-0.2c0.3-0.1,0.5-0.3,0.7-0.6s0.2-0.5,0.2-0.8c0-0.1,0-0.2,0-0.3c0-0.1-0.1-0.2-0.1-0.2c0-0.1-0.1-0.1-0.2-0.2
			c-0.1-0.1-0.1-0.1-0.2-0.2c-0.1,0-0.1-0.1-0.2-0.2c-0.1-0.1-0.2-0.1-0.2-0.1c-0.1,0-0.1-0.1-0.2-0.1c-0.1-0.1-0.2-0.1-0.2-0.1
			c-0.1,0-0.1-0.1-0.2-0.1c-0.1-0.1-0.2-0.1-0.2-0.1c0,0-0.1-0.1-0.2-0.1c-0.1-0.1-0.1-0.1-0.2-0.1c0,0-0.1-0.1-0.1-0.2
			c0-0.1-0.1-0.1-0.1-0.2c0-0.1,0-0.2,0-0.2c0-0.1,0-0.3,0.1-0.4c0.1-0.1,0.2-0.2,0.3-0.3c0.1-0.1,0.3-0.1,0.5-0.1
			c0.1,0,0.2,0,0.3,0.1c0.1,0.1,0.2,0.2,0.3,0.3c0.1,0.1,0.1,0.2,0.2,0.4c0.1,0.1,0.1,0.2,0.1,0.4c0.1,0,0.1,0.1,0.2,0.1
			c0.1,0,0.1,0,0.1-0.1c0-0.5-0.1-1-0.1-1.3c-0.1,0-0.3,0-0.4-0.1c-0.1,0-0.3-0.1-0.4-0.1c-0.1,0-0.2,0-0.4,0
			c-0.3,0-0.6,0.1-0.8,0.2c-0.3,0.1-0.5,0.3-0.6,0.5c-0.2,0.2-0.2,0.5-0.2,0.8c0,0.2,0,0.3,0.1,0.4c0,0.1,0.1,0.2,0.2,0.3
			c0.1,0.1,0.2,0.2,0.3,0.3c0.1,0.1,0.2,0.2,0.3,0.2c0.1,0.1,0.2,0.1,0.3,0.2c0.1,0.1,0.3,0.1,0.3,0.2c0.1,0,0.2,0.1,0.3,0.2
			c0.1,0.1,0.2,0.2,0.2,0.2c0.1,0.1,0.1,0.2,0.2,0.3c0,0.1,0.1,0.2,0.1,0.3c0,0.3-0.1,0.5-0.2,0.6c-0.2,0.2-0.4,0.2-0.6,0.2
			c-0.1,0-0.2,0-0.4-0.1c-0.1,0-0.2-0.1-0.3-0.2c-0.1-0.1-0.2-0.2-0.3-0.3c-0.1-0.1-0.1-0.2-0.2-0.3c-0.1-0.1-0.1-0.2-0.1-0.3
			c0,0-0.1,0-0.1,0c-0.1,0-0.1,0-0.2,0.1C73.8,94.4,73.9,94.6,73.9,94.9 M69.9,90.9C69.9,90.9,69.9,90.9,69.9,90.9l0.7,0v3.4
			c0,0.2,0,0.4,0.1,0.5c0,0.2,0.1,0.3,0.2,0.4c0.1,0.1,0.2,0.2,0.3,0.2c0.1,0.1,0.2,0.1,0.3,0.1c0.1,0,0.2,0,0.4,0
			c0.1,0,0.3,0,0.4-0.1c0.1,0,0.3-0.1,0.4-0.2c0.1-0.1,0.2-0.1,0.3-0.2c0.1-0.1,0.1-0.1,0.2-0.2c0,0,0,0,0,0c0,0,0,0,0-0.1
			c0,0,0-0.1,0-0.1c0,0,0-0.1,0-0.1c0,0-0.1,0.1-0.2,0.1c-0.1,0-0.2,0.1-0.3,0.1c-0.1,0-0.2,0.1-0.3,0.1c-0.3,0-0.5-0.1-0.6-0.2
			c-0.1-0.2-0.2-0.4-0.2-0.7v-3.1H73c0.1-0.1,0.2-0.2,0.2-0.4v-0.1c0,0,0,0,0,0c0,0,0,0,0,0c0,0,0,0,0,0h-1.5v-1.6c0,0,0,0,0,0
			c0,0,0,0,0,0c0,0,0,0-0.1,0c0,0-0.1,0-0.1,0c0,0-0.1,0.1-0.1,0.2c-0.1,0.1-0.2,0.2-0.3,0.3c-0.1,0.1-0.2,0.2-0.3,0.3v0.7h-0.4
			c0,0-0.1,0.1-0.2,0.2C69.9,90.8,69.9,90.8,69.9,90.9C69.9,90.9,69.9,90.9,69.9,90.9 M63.8,90.9c0.1,0,0.3,0,0.4,0
			c0.1,0,0.2,0.1,0.3,0.2c0.1,0.1,0.1,0.3,0.1,0.6v1.5c0,0.1,0,0.2,0,0.3c0,0.1,0,0.2,0,0.4c0,0.1,0,0.2,0.1,0.4
			c0,0.1,0.1,0.2,0.1,0.3s0.1,0.2,0.1,0.3c0.1,0.1,0.1,0.2,0.2,0.3c0.1,0.1,0.2,0.2,0.3,0.2c0.1,0.1,0.2,0.1,0.3,0.1
			c0.1,0,0.2,0,0.4,0c0.3,0,0.6-0.1,0.9-0.2c0.3-0.2,0.6-0.3,0.8-0.5l0,0.1v0.5c0,0,0,0.1,0,0.1s0,0.1,0.1,0.1l0.1,0
			c0.1,0,0.2,0,0.3-0.1c0.1,0,0.2-0.1,0.4-0.1c0.1,0,0.3-0.1,0.4-0.1c0.1,0,0.3,0,0.4,0c0,0,0,0,0.1,0c0,0,0-0.1,0-0.1
			c0,0,0,0,0-0.1c0-0.1,0-0.1,0-0.1c0,0,0,0-0.1,0c-0.1,0-0.1,0-0.2,0c-0.1,0-0.2,0-0.2-0.1c-0.1,0-0.1-0.1-0.1-0.1
			c-0.1-0.3-0.1-0.6-0.1-0.9V92v-0.5c0-0.4,0-0.7,0.1-0.8c0,0,0-0.1,0-0.1c0,0,0-0.1-0.1-0.1c0,0,0-0.1-0.1-0.1
			c-0.4,0.1-1,0.2-1.6,0.2c0,0,0,0.1,0,0.2c0,0.1,0,0.1,0,0.1c0.1,0,0.3,0,0.4,0c0.1,0,0.2,0.1,0.3,0.2c0.1,0.1,0.1,0.3,0.1,0.6v2.6
			c0,0.1-0.1,0.2-0.2,0.3c-0.1,0.1-0.2,0.2-0.4,0.3C67,95,66.8,95,66.6,95c-0.4,0-0.7-0.1-0.9-0.4c-0.2-0.3-0.3-0.8-0.3-1.4v-1.2
			v-0.5c0-0.1,0-0.2,0-0.3c0-0.1,0-0.2,0-0.3s0-0.1,0-0.2c0,0,0-0.1,0-0.1c0-0.1-0.1-0.1-0.1-0.1c-0.4,0.1-1,0.2-1.6,0.2
			c0,0,0,0.1,0,0.1C63.7,90.8,63.7,90.9,63.8,90.9 M59.9,92.1c0-0.1,0-0.1,0.1-0.2s0.1-0.2,0.1-0.3c0-0.1,0.1-0.2,0.2-0.3
			c0.1-0.1,0.1-0.2,0.2-0.3c0.1-0.1,0.2-0.1,0.3-0.2c0.1-0.1,0.2-0.1,0.4-0.1c0.1,0,0.3,0,0.4,0.1c0.1,0.1,0.2,0.1,0.3,0.2
			c0.1,0.1,0.1,0.2,0.2,0.3c0,0.1,0.1,0.2,0.1,0.3c0,0.1,0,0.2,0,0.2c0,0.2-0.1,0.3-0.3,0.3L59.9,92.1
			C59.9,92.2,59.9,92.2,59.9,92.1 M59.3,94.5c0.2,0.4,0.5,0.7,0.9,0.9c0.4,0.2,0.8,0.3,1.3,0.3c0.2,0,0.4,0,0.6-0.1
			c0.2-0.1,0.4-0.2,0.5-0.3c0.1-0.1,0.3-0.2,0.4-0.3c0.1-0.1,0.2-0.2,0.2-0.3c0-0.1,0.1-0.1,0.1-0.2c0,0,0-0.1,0-0.1c0,0,0,0,0-0.1
			c0,0,0,0,0,0c0,0.1-0.1,0.1-0.2,0.2c-0.1,0.1-0.2,0.1-0.3,0.2c-0.1,0.1-0.2,0.1-0.4,0.2c-0.2,0-0.3,0.1-0.5,0.1
			c-0.2,0-0.4,0-0.6-0.1c-0.2-0.1-0.4-0.1-0.5-0.3c-0.2-0.1-0.3-0.3-0.4-0.4C60.1,94,60,93.7,60,93.5c-0.1-0.2-0.1-0.5-0.1-0.8v-0.1
			c0.1,0,0.6,0,1.5,0c0.9,0,1.4,0,1.5,0c0.1,0,0.2,0,0.2-0.1c0-0.1,0.1-0.2,0.1-0.4c0-0.1,0-0.2,0-0.2c0-0.1,0-0.2-0.1-0.3
			c0-0.1-0.1-0.2-0.2-0.3c-0.1-0.1-0.1-0.2-0.2-0.3s-0.2-0.2-0.3-0.3c-0.1-0.1-0.3-0.1-0.4-0.2c-0.2,0-0.4-0.1-0.6-0.1
			c-0.2,0-0.4,0-0.6,0.1c-0.2,0.1-0.4,0.2-0.5,0.3c-0.2,0.1-0.3,0.3-0.5,0.4c-0.2,0.2-0.3,0.4-0.4,0.6c-0.1,0.2-0.2,0.4-0.3,0.7
			C59,92.7,59,93,59,93.2C59,93.7,59.1,94.1,59.3,94.5 M54,91.9c0.1-0.3,0.3-0.5,0.5-0.7c0.2-0.2,0.5-0.3,0.8-0.3
			c0.3,0,0.6,0.1,0.9,0.2c0.3,0.1,0.4,0.3,0.4,0.4v3c0,0,0,0.1-0.1,0.2c-0.1,0.1-0.1,0.1-0.2,0.2c-0.1,0-0.2,0.1-0.3,0.1
			c-0.1,0-0.3,0-0.4,0c-0.3,0-0.5-0.1-0.7-0.2c-0.2-0.1-0.4-0.3-0.5-0.5c-0.1-0.2-0.2-0.4-0.3-0.7c-0.1-0.2-0.1-0.5-0.1-0.8
			C53.9,92.5,53.9,92.2,54,91.9 M53,94.1c0.1,0.3,0.3,0.6,0.5,0.8c0.2,0.2,0.4,0.4,0.7,0.5c0.3,0.1,0.5,0.2,0.8,0.2
			c0.3,0,0.5-0.1,0.9-0.3c0.3-0.2,0.6-0.3,0.7-0.4c0,0,0,0,0,0c0,0,0,0,0,0.1v0.4c0,0.1,0,0.1,0,0.2c0,0.1,0,0.1,0.1,0.1l0.1,0
			c0.1,0,0.2,0,0.3-0.1c0.1,0,0.2-0.1,0.4-0.1c0.1,0,0.3-0.1,0.4-0.1c0.1,0,0.3,0,0.4,0c0,0,0,0,0.1-0.1c0-0.1,0-0.1,0-0.1
			c0-0.1,0-0.1,0-0.2c0,0,0,0,0,0c0,0-0.1,0-0.1,0c0,0-0.1,0-0.1,0c0,0-0.1,0-0.1,0c0,0-0.1,0-0.1,0c0,0-0.1,0-0.1-0.1
			c0,0-0.1,0-0.1-0.1c-0.1-0.1-0.1-0.5-0.1-1.2v-5.1c0-0.4,0-0.8,0.1-1c0,0,0-0.1,0-0.1c0,0-0.1-0.1-0.1-0.1
			c-0.6,0.3-1.1,0.4-1.7,0.5c0,0,0,0,0,0.1c0,0.1,0,0.1,0,0.2c0,0,0,0.1,0,0.1c0.4,0,0.7,0.1,0.7,0.2c0,0.1,0.1,0.3,0.1,0.6v1.3
			c0,0.2,0,0.2-0.1,0.2c-0.1,0-0.2,0-0.4-0.1c-0.2,0-0.3,0-0.5,0c-0.2,0-0.5,0-0.7,0.1c-0.3,0.1-0.5,0.2-0.8,0.4
			c-0.3,0.2-0.5,0.4-0.7,0.6c-0.2,0.2-0.4,0.5-0.5,0.8c-0.1,0.3-0.2,0.6-0.2,0.9C52.8,93.5,52.9,93.8,53,94.1 M49.6,95.5
			c0,0.1,0,0.1,0,0.2c0.1,0,0.2,0,0.4,0c0.2,0,0.3,0,0.4,0c0.1,0,0.3,0,0.4,0c0.1,0,0.3,0,0.4,0c0.1,0,0.3,0,0.4,0
			c0.2,0,0.3,0,0.4,0c0,0,0-0.1,0-0.2c0,0,0,0,0,0c0-0.1,0-0.1,0-0.2c0,0-0.1,0-0.2,0c-0.1,0-0.2,0-0.2,0s-0.2,0-0.2-0.1
			c-0.1,0-0.1-0.1-0.1-0.1c0-0.1-0.1-0.4-0.1-0.9v-5.6c0-0.4,0-0.8,0.1-1c0,0,0-0.1,0-0.1c0,0-0.1-0.1-0.1-0.1
			c-0.6,0.3-1.1,0.4-1.7,0.5c0,0,0,0,0,0.1c0,0.1,0,0.1,0,0.2c0,0,0,0.1,0,0.1c0.4,0,0.7,0.1,0.7,0.2c0,0.1,0.1,0.3,0.1,0.6v5.2
			c0,0.5,0,0.7-0.1,0.9c0,0.1-0.1,0.1-0.3,0.1c-0.2,0-0.3,0.1-0.4,0.1C49.6,95.3,49.6,95.4,49.6,95.5 M45.7,92.1
			c0-0.1,0-0.1,0.1-0.2s0.1-0.2,0.1-0.3c0-0.1,0.1-0.2,0.2-0.3c0.1-0.1,0.1-0.2,0.2-0.3c0.1-0.1,0.2-0.1,0.3-0.2s0.2-0.1,0.4-0.1
			c0.1,0,0.3,0,0.4,0.1c0.1,0.1,0.2,0.1,0.3,0.2c0.1,0.1,0.1,0.2,0.2,0.3c0,0.1,0.1,0.2,0.1,0.3c0,0.1,0,0.2,0,0.2
			c0,0.2-0.1,0.3-0.3,0.3L45.7,92.1C45.7,92.2,45.7,92.2,45.7,92.1 M45.1,94.5c0.2,0.4,0.5,0.7,0.9,0.9c0.4,0.2,0.8,0.3,1.3,0.3
			c0.2,0,0.4,0,0.6-0.1c0.2-0.1,0.4-0.2,0.5-0.3c0.1-0.1,0.3-0.2,0.4-0.3c0.1-0.1,0.2-0.2,0.2-0.3c0-0.1,0.1-0.1,0.1-0.2
			c0,0,0-0.1,0-0.1c0,0,0,0,0-0.1c0,0,0,0,0,0c0,0.1-0.1,0.1-0.2,0.2c-0.1,0.1-0.2,0.1-0.3,0.2c-0.1,0.1-0.2,0.1-0.4,0.2
			c-0.2,0-0.3,0.1-0.5,0.1c-0.2,0-0.4,0-0.6-0.1c-0.2-0.1-0.4-0.1-0.5-0.3c-0.2-0.1-0.3-0.3-0.4-0.4c-0.1-0.2-0.2-0.4-0.3-0.6
			c-0.1-0.2-0.1-0.5-0.1-0.8v-0.1c0.1,0,0.6,0,1.5,0c0.9,0,1.4,0,1.5,0c0.1,0,0.2,0,0.2-0.1c0-0.1,0.1-0.2,0.1-0.4
			c0-0.1,0-0.2,0-0.2c0-0.1,0-0.2-0.1-0.3c0-0.1-0.1-0.2-0.2-0.3c-0.1-0.1-0.1-0.2-0.2-0.3c-0.1-0.1-0.2-0.2-0.3-0.3
			c-0.1-0.1-0.3-0.1-0.4-0.2c-0.2,0-0.4-0.1-0.6-0.1c-0.2,0-0.4,0-0.6,0.1c-0.2,0.1-0.4,0.2-0.5,0.3c-0.2,0.1-0.3,0.3-0.5,0.4
			c-0.2,0.2-0.3,0.4-0.4,0.6c-0.1,0.2-0.2,0.4-0.3,0.7c-0.1,0.2-0.1,0.5-0.1,0.8C44.8,93.7,44.9,94.1,45.1,94.5 M40.9,90.9
			C40.9,90.9,40.9,90.9,40.9,90.9l0.7,0v3.4c0,0.2,0,0.4,0.1,0.5c0,0.2,0.1,0.3,0.2,0.4c0.1,0.1,0.2,0.2,0.3,0.2
			c0.1,0.1,0.2,0.1,0.3,0.1s0.2,0,0.4,0c0.1,0,0.3,0,0.4-0.1c0.1,0,0.3-0.1,0.4-0.2c0.1-0.1,0.2-0.1,0.3-0.2
			c0.1-0.1,0.1-0.1,0.2-0.2c0,0,0,0,0,0c0,0,0,0,0-0.1c0,0,0-0.1,0-0.1c0,0,0-0.1,0-0.1c0,0-0.1,0.1-0.2,0.1c-0.1,0-0.2,0.1-0.3,0.1
			c-0.1,0-0.2,0.1-0.3,0.1c-0.3,0-0.5-0.1-0.6-0.2c-0.1-0.2-0.2-0.4-0.2-0.7v-3.1h1.4c0.1-0.1,0.2-0.2,0.2-0.4v-0.1c0,0,0,0,0,0
			c0,0,0,0,0,0c0,0,0,0,0,0h-1.5v-1.6c0,0,0,0,0,0c0,0,0,0,0,0c0,0,0,0-0.1,0c0,0-0.1,0-0.1,0c0,0-0.1,0.1-0.1,0.2
			c-0.1,0.1-0.2,0.2-0.3,0.3c-0.1,0.1-0.2,0.2-0.3,0.3v0.7h-0.4c0,0-0.1,0.1-0.2,0.2S40.8,90.8,40.9,90.9
			C40.8,90.9,40.8,90.9,40.9,90.9 M37.2,90.9C37.2,90.9,37.2,90.9,37.2,90.9l0.7,0v3.4c0,0.2,0,0.4,0.1,0.5c0,0.2,0.1,0.3,0.2,0.4
			c0.1,0.1,0.2,0.2,0.3,0.2c0.1,0.1,0.2,0.1,0.3,0.1c0.1,0,0.2,0,0.4,0c0.1,0,0.3,0,0.4-0.1c0.1,0,0.3-0.1,0.4-0.2
			c0.1-0.1,0.2-0.1,0.3-0.2c0.1-0.1,0.1-0.1,0.2-0.2c0,0,0,0,0,0c0,0,0,0,0-0.1c0,0,0-0.1,0-0.1c0,0,0-0.1,0-0.1
			c0,0-0.1,0.1-0.2,0.1c-0.1,0-0.2,0.1-0.3,0.1c-0.1,0-0.2,0.1-0.3,0.1c-0.3,0-0.5-0.1-0.6-0.2c-0.1-0.2-0.2-0.4-0.2-0.7v-3.1h1.4
			c0.1-0.1,0.2-0.2,0.2-0.4v-0.1c0,0,0,0,0,0c0,0,0,0,0,0c0,0,0,0,0,0h-1.5v-1.6c0,0,0,0,0,0c0,0,0,0,0,0c0,0,0,0-0.1,0
			c0,0-0.1,0-0.1,0c0,0-0.1,0.1-0.1,0.2c-0.1,0.1-0.2,0.2-0.3,0.3c-0.1,0.1-0.2,0.2-0.3,0.3v0.7h-0.4c0,0-0.1,0.1-0.2,0.2
			S37.2,90.8,37.2,90.9C37.2,90.9,37.2,90.9,37.2,90.9 M35.3,89.1c0.2,0,0.3-0.1,0.4-0.2s0.2-0.3,0.2-0.4s-0.1-0.3-0.2-0.4
			C35.6,88,35.5,88,35.3,88c-0.2,0-0.3,0.1-0.4,0.2c-0.1,0.1-0.2,0.3-0.2,0.4s0.1,0.3,0.2,0.4C35,89.1,35.2,89.1,35.3,89.1
			 M34.1,91.2c0.1,0,0.1,0,0.2,0c0.1,0,0.2,0,0.3,0.1c0.1,0,0.2,0.1,0.2,0.1c0,0.1,0.1,0.3,0.1,0.6v2.2c0,0.5,0,0.7-0.1,0.9
			c0,0.1-0.1,0.1-0.3,0.1c-0.2,0-0.3,0.1-0.4,0.1c0,0,0,0.1,0,0.2c0,0.1,0,0.1,0,0.2c0.1,0,0.2,0,0.4,0c0.2,0,0.3,0,0.4,0
			c0.1,0,0.3,0,0.4,0c0.1,0,0.3,0,0.4,0c0.1,0,0.3,0,0.5,0c0.2,0,0.3,0,0.4,0c0,0,0-0.1,0-0.2c0-0.1,0-0.2,0-0.2c0,0-0.1,0-0.1,0
			c0,0-0.1,0-0.1,0c-0.1,0-0.1,0-0.2,0c-0.1,0-0.1,0-0.2,0c0,0-0.1,0-0.1,0c0,0,0,0-0.1-0.1c0-0.1-0.1-0.4-0.1-0.9v-2.5v-0.4
			c0-0.1,0-0.4,0.1-0.8c0,0,0-0.1,0-0.1c0,0-0.1-0.1-0.1-0.1c-0.5,0.2-1,0.4-1.7,0.5c0,0,0,0.1,0,0.1v0
			C34.1,91.1,34.1,91.2,34.1,91.2 M23.3,95.6c0.1,0,0.3,0,0.5,0c0.2,0,0.3,0,0.5,0c0.1,0,0.3,0,0.5,0c0.2,0,0.3,0,0.4,0
			c0.1,0,0.3,0,0.4,0c0.2,0,0.3,0,0.4,0c0,0,0-0.1,0-0.2s0-0.1,0-0.2c-0.1,0-0.3,0-0.5-0.1c-0.2,0-0.4-0.1-0.4-0.2
			c0-0.1-0.1-0.2-0.1-0.4c0,0,0-0.2,0-0.4c0-0.3,0-0.6,0-1c0-0.4,0-0.9,0-1.4c0-0.5,0-1,0-1.6c0-0.6,0-1.1,0-1.6l2.9,6.9
			c0.1,0,0.1,0,0.1,0c0.1,0,0.1-0.1,0.2-0.2s0.2-0.3,0.2-0.4c1.5-3.7,2.3-5.8,2.5-6.3c0-0.1,0-0.1,0.1-0.1c0,0,0.1,0,0.1,0.1
			c0,0.1,0,0.1,0,0.1c0,0.9,0.1,2.6,0.2,5.1c0,0.1,0,0.2,0,0.3c0,0.2,0,0.3,0,0.3c0,0.3,0,0.5-0.1,0.5c-0.1,0-0.2,0.1-0.4,0.1
			c-0.2,0-0.3,0-0.4,0c0,0,0,0.1,0,0.2c0,0.1,0,0.1,0,0.1c0.1,0,0.3,0,0.5,0c0.2,0,0.4,0,0.5,0c0.1,0,0.3,0,0.5,0c0.2,0,0.3,0,0.5,0
			c0.2,0,0.3,0,0.5,0c0.2,0,0.4,0,0.4,0c0,0,0-0.1,0-0.2c0-0.1,0-0.1,0-0.2c-0.1,0-0.3,0-0.5,0c-0.2,0-0.3-0.1-0.4-0.2
			c-0.1-0.2-0.1-0.6-0.1-1.1c0-0.4,0-0.9,0-1.8c0-0.8,0-1.5,0-2.1c0-0.6,0-1,0-1.3c0-0.2,0-0.4,0.1-0.4c0-0.1,0.1-0.1,0.4-0.1
			c0.2,0,0.4-0.1,0.5-0.1l0-0.3c-0.4,0-0.8,0-1.3,0c-0.1,0-0.4,0-0.9,0L30.7,88c-0.1,0.2-0.1,0.4-0.2,0.6c-0.1,0.2-0.2,0.4-0.2,0.6
			c-0.1,0.1-0.7,1.7-1.8,4.7c0,0,0,0-0.1,0c0,0,0,0,0,0c-0.2-0.6-0.5-1.3-0.9-2.3c-0.4-1-0.7-1.8-1-2.5c-0.3-0.7-0.5-1.1-0.5-1.4
			c-0.4,0-0.8,0.1-1,0.1c-0.2,0-0.4,0-0.7,0c-0.2,0-0.4,0-0.5,0c0,0,0,0.1,0,0.2s0,0.2,0,0.2c0.1,0,0.3,0,0.5,0.1
			c0.2,0.1,0.3,0.1,0.4,0.2c0,0.1,0,0.2,0,0.5c0,0.1,0,0.4,0,0.9c0,0.5,0,1.2-0.1,2.1c0,0.9-0.1,1.8-0.1,2.6c0,0.3-0.1,0.5-0.1,0.6
			c0,0.1-0.2,0.1-0.4,0.2s-0.4,0.1-0.5,0.1c0,0,0,0.1,0,0.2v0C23.3,95.5,23.3,95.6,23.3,95.6"/>
		<path style="clip-path:url(#SVGID_00000062900055432090970480000007579989847280298943_);fill:#6D767F;" d="M90.4,77.7
			c0.2,0,0.4,0,0.6,0c0.2,0,0.4,0,0.6,0c0.2,0,0.4,0,0.6,0c0.2,0,0.4,0,0.6,0c0.2,0,0.4,0,0.6,0c0.2,0,0.4,0,0.5,0c0,0,0-0.1,0-0.2
			c0-0.1,0-0.2-0.1-0.2c-0.2,0-0.4,0-0.7-0.1c-0.3,0-0.5-0.1-0.5-0.2c0-0.1-0.1-0.3-0.1-0.5c0,0,0-0.2,0-0.6c0-0.3,0-0.8,0-1.4
			c0-0.6,0-1.2,0.1-1.8c0-0.7,0-1.4,0.1-2.1c0-0.8,0-1.5,0-2.1l3.8,9.2c0.1,0,0.1,0,0.1,0c0.1,0,0.2-0.1,0.3-0.3
			c0.1-0.2,0.2-0.4,0.3-0.5c1.9-4.9,3-7.7,3.3-8.3c0-0.1,0.1-0.1,0.1-0.1c0,0,0.1,0,0.1,0.1c0,0.1,0,0.1,0,0.2
			c0.1,1.3,0.1,3.5,0.3,6.7c0,0.1,0,0.2,0,0.5c0,0.2,0,0.4,0,0.4c0,0.4-0.1,0.6-0.2,0.7c-0.1,0-0.3,0.1-0.5,0.1
			c-0.2,0-0.4,0.1-0.6,0.1c0,0.1,0,0.2,0,0.3c0,0.1,0,0.2,0,0.2c0.2,0,0.4,0,0.6,0c0.2,0,0.5,0,0.7,0s0.4,0,0.6,0s0.4,0,0.6,0
			c0.2,0,0.4,0,0.7,0c0.3,0,0.5,0,0.6,0c0,0,0-0.1,0-0.2c0-0.1,0-0.2,0-0.2c-0.2,0-0.4,0-0.7-0.1c-0.3,0-0.4-0.1-0.5-0.2
			c-0.1-0.3-0.2-0.8-0.2-1.5c0-0.5,0-1.2,0-2.3c0-1.1,0-2-0.1-2.8c0-0.8,0-1.4,0-1.7c0-0.3,0-0.5,0.1-0.6c0-0.1,0.2-0.1,0.5-0.2
			c0.3-0.1,0.5-0.1,0.6-0.1l0-0.5c-0.5,0-1.1,0.1-1.8,0.1c-0.2,0-0.6,0-1.2-0.1l-0.1,0.3c-0.1,0.2-0.2,0.5-0.3,0.8
			c-0.1,0.3-0.2,0.6-0.3,0.8c-0.1,0.2-0.9,2.2-2.4,6.2c0,0,0,0.1-0.1,0.1c0,0-0.1,0-0.1,0c-0.3-0.7-0.7-1.7-1.2-3
			c-0.5-1.3-1-2.4-1.4-3.3c-0.4-0.9-0.6-1.5-0.7-1.8c-0.6,0.1-1,0.1-1.3,0.1c-0.3,0-0.6,0-0.9,0c-0.3,0-0.6,0-0.7,0c0,0,0,0.1,0,0.2
			s0,0.2,0,0.2c0.1,0,0.3,0,0.6,0.1c0.3,0.1,0.4,0.1,0.5,0.2c0,0.1,0.1,0.3,0.1,0.6c0,0.1,0,0.5,0,1.2c0,0.7,0,1.6-0.1,2.8
			c0,1.2-0.1,2.4-0.1,3.5c0,0.4-0.1,0.6-0.2,0.8c-0.1,0.1-0.2,0.2-0.6,0.2c-0.3,0.1-0.5,0.1-0.7,0.1c0,0.1,0,0.1,0,0.2v0
			C90.4,77.6,90.4,77.7,90.4,77.7 M79.1,67.7c0.2,0,0.4,0,0.6,0.1c0.3,0,0.4,0.1,0.4,0.2c0.1,0.2,0.1,0.6,0.1,1.2v4.6
			c0,0.6,0.1,1.2,0.3,1.7c0.2,0.5,0.5,0.9,0.9,1.3c0.3,0.3,0.8,0.6,1.2,0.8c0.5,0.2,1,0.3,1.6,0.3c0.6,0,1.2-0.1,1.7-0.2
			c0.5-0.2,0.9-0.4,1.3-0.8c0.4-0.3,0.6-0.8,0.8-1.4c0.2-0.6,0.3-1.2,0.3-2v-4.2c0-0.3,0-0.5,0-0.7c0-0.1,0.1-0.3,0.1-0.4
			c0-0.1,0.2-0.2,0.5-0.2c0.3-0.1,0.5-0.1,0.7-0.1c0-0.1,0-0.2,0-0.2v0c0-0.1,0-0.1,0-0.2c-0.2,0-0.4,0-0.6,0c-0.2,0-0.4,0-0.5,0
			c-0.2,0-0.4,0-0.6,0c-0.2,0-0.3,0-0.5,0c-0.2,0-0.3,0-0.4,0c-0.1,0-0.2,0-0.4,0c-0.2,0-0.3,0-0.4,0c0,0,0,0.1,0,0.2
			c0,0.1,0,0.2,0.1,0.2c0.1,0,0.4,0,0.6,0.1c0.3,0.1,0.4,0.1,0.5,0.2c0.1,0.1,0.1,0.2,0.1,0.4c0,0.1,0,0.4,0,0.7v4.2
			c0,2.3-1.1,3.5-3,3.5c-1,0-1.7-0.3-2.2-0.9c-0.5-0.6-0.8-1.6-0.8-2.9v-3.9c0-0.6,0-1,0.1-1.2c0-0.1,0.2-0.1,0.4-0.2
			c0.3,0,0.5-0.1,0.6-0.1c0,0,0.1-0.1,0.1-0.2c0-0.1,0-0.2-0.1-0.2c-0.1,0-0.3,0-0.6,0c-0.3,0-0.5,0-0.7,0c-0.2,0-0.4,0-0.6,0
			c-0.2,0-0.4,0-0.6,0c-0.2,0-0.4,0-0.7,0c-0.3,0-0.5,0-0.6,0c0,0-0.1,0.1-0.1,0.2C79.1,67.6,79.1,67.7,79.1,67.7 M72.4,69.1
			c0-0.7,0-1.1,0.1-1.2c0-0.1,0.3-0.2,0.8-0.2c0.4,0,0.8,0.1,1.1,0.2c0.3,0.1,0.6,0.3,0.8,0.5c0.2,0.2,0.3,0.5,0.4,0.7
			c0.1,0.3,0.1,0.6,0.1,0.9c0,0.3-0.1,0.6-0.2,0.9s-0.3,0.5-0.6,0.7c-0.2,0.2-0.5,0.3-0.8,0.4c-0.3,0.1-0.6,0.2-0.9,0.2h-0.8V69.1z
			 M69.9,77.5c0,0.1,0,0.2,0.1,0.2c0.1,0,0.3,0,0.6,0c0.3,0,0.5,0,0.7,0c0.2,0,0.4,0,0.6,0c0.2,0,0.4,0,0.6,0c0.2,0,0.4,0,0.7,0
			c0.3,0,0.5,0,0.6,0c0,0,0.1-0.1,0.1-0.2c0-0.1,0-0.2-0.1-0.2c-0.2,0-0.4,0-0.6-0.1c-0.3,0-0.4-0.1-0.4-0.2
			c-0.1-0.2-0.1-0.6-0.1-1.2v-2.9h0.8c0.2,0,0.4,0.1,0.5,0.2c0.4,0.7,0.9,1.5,1.4,2.2c0.5,0.8,0.8,1.3,1,1.5
			c0.1,0.1,0.1,0.1,0.2,0.2c0.1,0.1,0.1,0.1,0.2,0.2c0.1,0,0.1,0.1,0.2,0.1c0,0,0.1,0.1,0.2,0.1c0.1,0,0.1,0,0.1,0.1
			c0,0,0.1,0,0.1,0c0,0,0,0,0,0c0.4,0.1,1.1,0.2,2.2,0.2c0,0,0-0.1,0-0.2c0,0,0-0.1,0-0.1c0-0.1,0-0.1,0-0.2c-0.4,0-0.8-0.1-1-0.3
			c-0.3-0.1-0.5-0.4-0.7-0.7c-0.5-0.7-1-1.3-1.4-1.9c-0.4-0.5-0.8-1.1-1.2-1.8c0.3-0.1,0.5-0.2,0.7-0.4c0.2-0.2,0.5-0.4,0.7-0.6
			c0.2-0.2,0.3-0.5,0.5-0.8c0.1-0.3,0.2-0.6,0.2-0.8c0-0.3-0.1-0.7-0.2-1c-0.1-0.3-0.3-0.6-0.5-0.8c-0.2-0.2-0.4-0.4-0.7-0.5
			c-0.3-0.2-0.5-0.3-0.8-0.3c-0.3-0.1-0.6-0.1-0.8-0.1c-0.3,0-0.8,0-1.2,0c-0.5,0-0.8,0-1,0c-0.2,0-0.4,0-0.6,0c-0.2,0-0.4,0-0.7,0
			c-0.3,0-0.5,0-0.6,0c0,0-0.1,0.1-0.1,0.2v0c0,0.1,0,0.2,0.1,0.2c0.2,0,0.4,0,0.6,0.1c0.3,0,0.4,0.1,0.4,0.2
			c0.1,0.2,0.1,0.6,0.1,1.2v6.7c0,0.6,0,1-0.1,1.2c0,0.1-0.2,0.1-0.4,0.2c-0.3,0-0.5,0.1-0.6,0.1C69.9,77.3,69.9,77.4,69.9,77.5
			 M59.9,69.8c0.1,0,0.2,0,0.2-0.1c0.1-0.6,0.3-1,0.6-1.4s0.6-0.5,0.9-0.5h2v8c0,0.6,0,1-0.1,1.2c0,0.1-0.2,0.1-0.4,0.2
			c-0.3,0-0.5,0.1-0.6,0.1c0,0-0.1,0.1-0.1,0.2c0,0.1,0,0.2,0.1,0.2c0.1,0,0.3,0,0.6,0c0.3,0,0.5,0,0.7,0c0.2,0,0.4,0,0.6,0
			c0.2,0,0.4,0,0.6,0c0.2,0,0.4,0,0.7,0c0.3,0,0.5,0,0.6,0c0,0,0.1-0.1,0.1-0.2c0-0.1,0-0.2-0.1-0.2c-0.2,0-0.4,0-0.6-0.1
			c-0.3,0-0.4-0.1-0.4-0.2C65,76.8,65,76.4,65,75.8v-8h2c0.4,0,0.7,0.2,0.9,0.5c0.3,0.3,0.4,0.8,0.6,1.4c0,0.1,0.1,0.1,0.2,0.1
			c0.1,0,0.2,0,0.3-0.1c-0.1-0.7-0.3-1.6-0.4-2.7c0,0-0.1,0-0.1,0h0c0,0-0.1,0-0.2,0.1c-0.1,0.1-0.3,0.1-0.5,0.2
			c-0.2,0.1-0.4,0.1-0.5,0.1h-6.1c-0.1,0-0.3,0-0.4-0.1c-0.2,0-0.3-0.1-0.4-0.1c-0.2-0.1-0.3-0.1-0.4,0c-0.1,1.1-0.3,2-0.4,2.7
			C59.7,69.8,59.8,69.8,59.9,69.8 M47.9,77.7c0.2,0,0.4,0,0.6,0c0.2,0,0.4,0,0.5,0c0.2,0,0.4,0,0.6,0c0.2,0,0.4,0,0.6,0
			c0.2,0,0.4,0,0.7,0c0.2,0,0.4,0,0.5,0c0,0,0-0.1,0-0.2c0-0.1,0-0.2-0.1-0.2c-0.1,0-0.2,0-0.4,0c-0.2,0-0.3-0.1-0.5-0.1
			s-0.3-0.1-0.3-0.2c0-0.1-0.1-0.2-0.1-0.3c0-0.1,0-0.2,0-0.3c0-0.1,0-0.3,0-0.5v-7.1l6.8,8.6c0.1,0.1,0.2,0.2,0.3,0.3
			c0.1,0.1,0.2,0.1,0.2,0.1c0.1,0,0.2,0,0.2-0.1c0-0.5,0-1.3,0-2.2v-6.4c0-0.3,0-0.5,0-0.7c0-0.1,0.1-0.3,0.1-0.4
			c0-0.1,0.2-0.2,0.5-0.2c0.3-0.1,0.5-0.1,0.7-0.1c0-0.1,0-0.2,0-0.2v0c0-0.1,0-0.1,0-0.2c-0.2,0-0.4,0-0.6,0c-0.2,0-0.4,0-0.5,0
			c-0.2,0-0.4,0-0.6,0c-0.2,0-0.4,0-0.6,0c-0.2,0-0.4,0-0.7,0c-0.3,0-0.4,0-0.6,0c0,0,0,0.1,0,0.2c0,0.1,0,0.2,0.1,0.2
			c0.2,0,0.4,0,0.7,0.1c0.3,0.1,0.5,0.1,0.5,0.2c0.1,0.1,0.1,0.2,0.1,0.3c0,0.1,0,0.2,0,0.3c0,0.1,0,0.3,0,0.5v5V75
			c-0.5-0.7-1.2-1.6-2.1-2.7c-0.9-1.1-1.8-2.2-2.5-3.1c-0.8-0.9-1.3-1.6-1.5-1.9c-0.3,0-0.7,0-1.2,0c-0.2,0-0.5,0-0.8,0
			c-0.4,0-0.6,0-0.8,0c0,0.1,0,0.1,0,0.2v0c0,0.1,0,0.1,0,0.2c0.1,0,0.2,0,0.4,0c0.2,0,0.3,0.1,0.5,0.1c0.2,0.1,0.3,0.1,0.3,0.2
			c0,0.1,0.1,0.2,0.1,0.3c0,0.1,0,0.2,0,0.3c0,0.1,0,0.3,0,0.5v6.8c0,0.3,0,0.5,0,0.7c0,0.1-0.1,0.3-0.1,0.4c0,0.1-0.2,0.2-0.5,0.2
			c-0.3,0.1-0.5,0.1-0.7,0.1c0,0.1,0,0.2,0,0.2C47.8,77.5,47.8,77.6,47.9,77.7 M38.7,77.5c0,0.1,0,0.2,0.1,0.2c0.2,0,0.5,0,0.9,0
			c0.4,0,0.7,0,1,0c0.7,0,1.7,0,2.8,0c1.1,0,2,0,2.5,0c0-0.2,0.1-0.4,0.1-0.6c0.1-0.2,0.1-0.5,0.2-0.6c0.1-0.2,0.2-0.4,0.3-0.7
			c0.1-0.3,0.2-0.5,0.2-0.7c0,0,0,0-0.1,0c0,0-0.1,0-0.1,0s-0.1,0-0.2,0c-0.1,0-0.2,0-0.2,0.1c-0.1,0.2-0.1,0.3-0.2,0.4
			c0,0.1-0.1,0.2-0.2,0.4c-0.1,0.1-0.1,0.3-0.2,0.3c-0.1,0.1-0.1,0.2-0.2,0.3c-0.1,0.1-0.2,0.2-0.3,0.2c-0.2,0.1-0.5,0.2-0.9,0.3
			c-0.4,0.1-0.7,0.1-1.1,0.1h-0.8c-0.4,0-0.6,0-0.8,0c-0.1,0-0.3-0.1-0.3-0.1c0,0,0-0.1-0.1-0.2c0-0.1,0-0.2,0-0.3
			c0-0.1,0-0.2,0-0.3v-0.3v-3c0-0.1,0.4-0.1,1.1-0.1c1,0,1.5,0,1.7,0.1c0.1,0,0.1,0.1,0.1,0.1c0,0,0.1,0.1,0.1,0.3
			c0.1,0.1,0.1,0.4,0.2,0.7c0,0.1,0.1,0.1,0.2,0.1c0.1,0,0.2,0,0.2-0.1V71c-0.1-0.1-0.1-0.1-0.3-0.1c-0.1,0-0.2,0-0.2,0.1
			c0,0,0,0.1,0,0.1c0,0.1-0.1,0.3-0.1,0.3c0,0.1,0,0.1-0.1,0.2c0,0.1-0.1,0.2-0.1,0.2S44.1,72,44,72c-0.1,0-0.1,0.1-0.2,0.1
			c-0.1,0-0.2,0-0.3,0c-0.1,0-0.2,0-0.4,0h-0.5h-0.8c-0.5,0-0.7,0-0.7-0.1v-3c0-0.6,0-1,0.1-1.1c0,0,0.1-0.1,0.2-0.1
			c0.1,0,0.2,0,0.3-0.1c0.1,0,0.2,0,0.3,0c0.1,0,0.2,0,0.2,0h1.3c0.2,0,0.4,0,0.6,0.1c0.2,0,0.3,0.1,0.5,0.2
			c0.2,0.1,0.3,0.3,0.4,0.5c0.1,0.2,0.2,0.5,0.3,0.8c0,0.1,0.1,0.1,0.2,0.1c0.1,0,0.2,0,0.3-0.1c0-0.1-0.1-0.4-0.2-0.9
			c-0.1-0.5-0.2-0.9-0.2-1.2c-0.6,0-1.5,0-2.6,0.1c-1.2,0-2,0.1-2.4,0.1c-0.2,0-0.4,0-0.6,0c-0.2,0-0.4,0-0.7,0c-0.3,0-0.5,0-0.6,0
			c0,0-0.1,0.1-0.1,0.2v0c0,0.1,0,0.2,0.1,0.2c0.2,0,0.4,0,0.6,0.1c0.3,0,0.4,0.1,0.4,0.2c0.1,0.2,0.1,0.6,0.1,1.2v6.7
			c0,0.6,0,1-0.1,1.2c0,0.1-0.2,0.1-0.4,0.2c-0.3,0-0.5,0.1-0.6,0.1C38.7,77.3,38.7,77.4,38.7,77.5 M28.6,77.5c0,0,0,0.1,0.1,0.1
			c0.1,0.1,0.1,0.1,0.2,0.1h7.9c0-0.2,0.1-0.4,0.2-0.6c0.1-0.2,0.1-0.4,0.2-0.5c0-0.2,0.1-0.4,0.2-0.7c0.1-0.3,0.2-0.6,0.2-0.8
			c0,0-0.1-0.1-0.2-0.1c-0.1,0-0.1,0-0.2,0c-0.1,0-0.2,0-0.2,0c0,0,0,0.1-0.1,0.2c0,0.1-0.1,0.2-0.1,0.2c0,0,0,0.1-0.1,0.2
			c0,0.1-0.1,0.2-0.1,0.2c0,0-0.1,0.1-0.1,0.2s-0.1,0.1-0.1,0.2c0,0.1-0.1,0.1-0.1,0.2c-0.1,0.1-0.1,0.1-0.2,0.2
			c-0.4,0.4-0.9,0.6-1.5,0.6h-4.1l1.7-2.4c1.1-1.6,2.2-3.2,3.3-4.8c1.1-1.6,1.7-2.4,1.7-2.5c0,0,0-0.1-0.1-0.1
			c0-0.1-0.1-0.1-0.1-0.1c0,0-0.1-0.1-0.1-0.1c-0.1,0-0.3,0-0.6,0c-0.3,0-0.5,0-0.6,0c-0.1,0-0.2,0-0.5,0c-0.2,0-0.4,0-0.5,0
			c-0.1,0-0.3,0-0.5,0c-0.2,0-0.4,0-0.6,0h-3c-0.3,0-0.7,0-1.3-0.1c-0.1,1.1-0.3,2-0.5,2.7c0,0,0.1,0.1,0.2,0.1c0.1,0,0.2,0,0.2,0
			c0.1,0,0.1,0,0.2-0.1c0.2-0.7,0.4-1.2,0.8-1.5s0.8-0.5,1.3-0.5h3.8L28.6,77.5C28.6,77.4,28.6,77.4,28.6,77.5"/>
		<path style="clip-path:url(#SVGID_00000062900055432090970480000007579989847280298943_);fill:#6D767F;" d="M92.3,52.2
			c0-0.7,0-1.1,0.1-1.2c0-0.1,0.3-0.2,0.8-0.2c0.4,0,0.8,0.1,1.1,0.2c0.3,0.1,0.6,0.3,0.8,0.5c0.2,0.2,0.3,0.5,0.4,0.7
			c0.1,0.3,0.1,0.6,0.1,0.9c0,0.3-0.1,0.6-0.2,0.9c-0.1,0.3-0.3,0.5-0.6,0.7c-0.2,0.2-0.5,0.3-0.8,0.4c-0.3,0.1-0.6,0.2-0.9,0.2
			h-0.8V52.2z M89.7,60.5c0,0.1,0,0.2,0.1,0.2c0.1,0,0.3,0,0.6,0c0.3,0,0.5,0,0.7,0c0.2,0,0.4,0,0.6,0c0.2,0,0.4,0,0.6,0
			c0.2,0,0.4,0,0.7,0c0.3,0,0.5,0,0.6,0c0,0,0.1-0.1,0.1-0.2c0-0.1,0-0.2-0.1-0.2c-0.2,0-0.4,0-0.6-0.1c-0.3,0-0.4-0.1-0.4-0.2
			c-0.1-0.2-0.1-0.6-0.1-1.2V56h0.8c0.2,0,0.4,0.1,0.5,0.2c0.4,0.7,0.9,1.5,1.4,2.2c0.5,0.8,0.8,1.3,1,1.5c0.1,0.1,0.1,0.1,0.2,0.2
			c0.1,0.1,0.1,0.1,0.2,0.2c0.1,0,0.1,0.1,0.2,0.1c0,0,0.1,0.1,0.2,0.1c0.1,0,0.1,0,0.1,0.1c0,0,0.1,0,0.1,0c0,0,0,0,0,0
			c0.4,0.1,1.1,0.2,2.2,0.2c0,0,0-0.1,0-0.2c0,0,0-0.1,0-0.1c0-0.1,0-0.1,0-0.2c-0.4,0-0.8-0.1-1-0.3c-0.3-0.1-0.5-0.4-0.7-0.7
			c-0.5-0.7-1-1.3-1.4-1.9c-0.4-0.5-0.8-1.1-1.2-1.8c0.3-0.1,0.5-0.2,0.7-0.4c0.2-0.2,0.5-0.4,0.7-0.6c0.2-0.2,0.4-0.5,0.5-0.8
			c0.1-0.3,0.2-0.6,0.2-0.8c0-0.3-0.1-0.7-0.2-1c-0.1-0.3-0.3-0.6-0.5-0.8c-0.2-0.2-0.4-0.4-0.7-0.5c-0.3-0.2-0.5-0.3-0.8-0.3
			c-0.3-0.1-0.6-0.1-0.8-0.1c-0.3,0-0.8,0-1.2,0c-0.5,0-0.8,0-1,0c-0.2,0-0.4,0-0.6,0c-0.2,0-0.4,0-0.7,0c-0.3,0-0.5,0-0.6,0
			c0,0-0.1,0.1-0.1,0.2v0c0,0.1,0,0.2,0.1,0.2c0.2,0,0.4,0,0.6,0.1c0.3,0,0.4,0.1,0.4,0.2c0.1,0.2,0.1,0.6,0.1,1.2v6.7
			c0,0.6,0,1-0.1,1.2c0,0.1-0.2,0.1-0.4,0.2c-0.3,0-0.5,0.1-0.6,0.1C89.8,60.3,89.7,60.4,89.7,60.5 M80.5,60.5c0,0.1,0,0.2,0.1,0.2
			c0.2,0,0.5,0,0.9,0c0.4,0,0.7,0,1,0c0.7,0,1.7,0,2.8,0c1.2,0,2,0,2.5,0c0-0.2,0.1-0.4,0.1-0.6c0.1-0.2,0.1-0.5,0.2-0.6
			c0.1-0.2,0.2-0.4,0.3-0.7c0.1-0.3,0.2-0.5,0.2-0.7c0,0,0,0-0.1,0c0,0-0.1,0-0.1,0c-0.1,0-0.1,0-0.2,0c-0.1,0-0.2,0-0.2,0.1
			c-0.1,0.2-0.1,0.3-0.2,0.4c0,0.1-0.1,0.2-0.2,0.4c-0.1,0.1-0.1,0.3-0.2,0.3c-0.1,0.1-0.1,0.2-0.2,0.3c-0.1,0.1-0.2,0.2-0.3,0.2
			c-0.2,0.1-0.5,0.2-0.9,0.3c-0.4,0.1-0.7,0.1-1.1,0.1h-0.8c-0.4,0-0.6,0-0.8,0c-0.1,0-0.3-0.1-0.3-0.1c0,0,0-0.1-0.1-0.2
			c0-0.1,0-0.2,0-0.3c0-0.1,0-0.2,0-0.3v-0.3v-3c0-0.1,0.4-0.1,1.1-0.1c1,0,1.5,0,1.7,0.1C86,56,86,56,86,56.1c0,0,0.1,0.1,0.1,0.3
			c0.1,0.1,0.1,0.4,0.2,0.7c0,0.1,0.1,0.1,0.2,0.1c0.1,0,0.2,0,0.3-0.1v-2.9C86.8,54,86.7,54,86.6,54c-0.1,0-0.2,0-0.2,0.1
			c0,0,0,0.1,0,0.1c0,0.1-0.1,0.3-0.1,0.3c0,0.1,0,0.1-0.1,0.2c0,0.1-0.1,0.2-0.1,0.2c0,0-0.1,0.1-0.1,0.1c-0.1,0-0.1,0.1-0.2,0.1
			c-0.1,0-0.2,0-0.3,0c-0.1,0-0.2,0-0.4,0h-0.5h-0.8c-0.5,0-0.7,0-0.7-0.1v-3c0-0.6,0-1,0.1-1.1c0,0,0.1-0.1,0.2-0.1
			c0.1,0,0.2,0,0.3-0.1c0.1,0,0.2,0,0.3,0c0.1,0,0.2,0,0.2,0h1.3c0.2,0,0.4,0,0.6,0.1c0.2,0,0.3,0.1,0.5,0.2
			c0.2,0.1,0.3,0.3,0.4,0.5c0.1,0.2,0.2,0.5,0.3,0.8c0,0.1,0.1,0.1,0.2,0.1c0.1,0,0.2,0,0.3-0.1c0-0.1-0.1-0.4-0.2-0.9
			c-0.1-0.5-0.2-0.9-0.2-1.2c-0.6,0-1.5,0-2.6,0.1c-1.2,0-2,0.1-2.4,0.1c-0.2,0-0.4,0-0.6,0c-0.2,0-0.4,0-0.7,0c-0.3,0-0.5,0-0.6,0
			c0,0-0.1,0.1-0.1,0.2v0c0,0.1,0,0.2,0.1,0.2c0.2,0,0.4,0,0.7,0.1c0.3,0,0.4,0.1,0.4,0.2c0.1,0.2,0.1,0.6,0.1,1.2v6.7
			c0,0.6,0,1-0.1,1.2c0,0.1-0.2,0.1-0.4,0.2c-0.3,0-0.5,0.1-0.7,0.1C80.6,60.3,80.5,60.4,80.5,60.5 M68.4,60.8c0.2,0,0.4,0,0.6,0
			c0.2,0,0.4,0,0.5,0c0.2,0,0.4,0,0.6,0c0.2,0,0.4,0,0.6,0c0.2,0,0.4,0,0.7,0c0.2,0,0.4,0,0.5,0c0,0,0-0.1,0-0.2
			c0-0.1,0-0.2-0.1-0.2c-0.1,0-0.2,0-0.4,0c-0.2,0-0.3-0.1-0.5-0.1c-0.2-0.1-0.3-0.1-0.3-0.2c0-0.1-0.1-0.2-0.1-0.3
			c0-0.1,0-0.2,0-0.3c0-0.1,0-0.3,0-0.5v-7.1l6.8,8.6c0.1,0.1,0.2,0.2,0.3,0.3c0.1,0.1,0.2,0.1,0.2,0.1c0.1,0,0.2,0,0.2-0.1
			c0-0.5,0-1.3,0-2.2v-6.4c0-0.3,0-0.5,0-0.7c0-0.1,0.1-0.3,0.1-0.4c0-0.1,0.2-0.2,0.5-0.2c0.3-0.1,0.5-0.1,0.7-0.1
			c0-0.1,0-0.2,0-0.2v0c0-0.1,0-0.1,0-0.2c-0.2,0-0.4,0-0.6,0c-0.2,0-0.4,0-0.5,0c-0.2,0-0.4,0-0.6,0c-0.2,0-0.4,0-0.6,0
			c-0.2,0-0.4,0-0.7,0c-0.3,0-0.4,0-0.6,0c0,0,0,0.1,0,0.2c0,0.1,0,0.2,0.1,0.2c0.2,0,0.4,0,0.7,0.1c0.3,0.1,0.5,0.1,0.5,0.2
			c0.1,0.1,0.1,0.2,0.1,0.3c0,0.1,0,0.2,0,0.3c0,0.1,0,0.3,0,0.5v5v0.9c-0.5-0.7-1.2-1.6-2.1-2.7c-0.9-1.1-1.8-2.2-2.5-3.1
			c-0.8-0.9-1.3-1.6-1.5-1.9c-0.3,0-0.7,0-1.2,0c-0.2,0-0.5,0-0.8,0c-0.4,0-0.6,0-0.8,0c0,0,0,0.1,0,0.2v0c0,0.1,0,0.1,0,0.2
			c0.1,0,0.2,0,0.4,0c0.2,0,0.4,0.1,0.5,0.1s0.3,0.1,0.3,0.2c0,0.1,0.1,0.2,0.1,0.3c0,0.1,0,0.2,0,0.3c0,0.1,0,0.3,0,0.5v6.8
			c0,0.3,0,0.5,0,0.7c0,0.1-0.1,0.3-0.1,0.4c0,0.1-0.2,0.2-0.5,0.2c-0.3,0.1-0.5,0.1-0.7,0.1c0,0.1,0,0.2,0,0.2
			C68.3,60.6,68.3,60.7,68.4,60.8 M57.4,57.3c0.2,0.5,0.4,1,0.7,1.4c0.3,0.4,0.7,0.8,1.1,1.1c0.4,0.3,0.9,0.6,1.5,0.7
			c0.5,0.2,1.1,0.3,1.7,0.3c0.4,0,0.8,0,1.1-0.1c0.3,0,0.6-0.1,0.8-0.1c0.2,0,0.4-0.1,0.7-0.2c0.2-0.1,0.4-0.2,0.5-0.2
			c0.1-0.1,0.3-0.1,0.4-0.2c0.1,0,0.2-0.1,0.2-0.1s0.1-0.1,0.1-0.1c0,0,0,0,0-0.1c0,0,0-0.1,0-0.2c0-0.1,0-0.1-0.1-0.2
			c0-0.1,0-0.2,0-0.3V58c0-0.6,0-1,0.1-1.2c0-0.1,0.2-0.1,0.4-0.2c0.2,0,0.4-0.1,0.6-0.1c0,0,0.1-0.1,0.1-0.2c0-0.1,0-0.2-0.1-0.2
			c-0.1,0-0.3,0-0.6,0c-0.2,0-0.5,0-0.6,0c-0.2,0-0.4,0-0.5,0c-0.2,0-0.4,0-0.6,0c-0.2,0-0.4,0-0.7,0c-0.3,0-0.5,0-0.6,0
			c0,0-0.1,0.1-0.1,0.2c0,0.1,0,0.2,0.1,0.2c0.2,0,0.4,0,0.6,0.1c0.3,0,0.4,0.1,0.4,0.2c0,0.2,0.1,0.6,0.1,1.2v1.6
			c0,0.1,0,0.2-0.1,0.2c-0.3,0.2-0.6,0.3-0.9,0.4c-0.3,0.1-0.6,0.1-1,0.1c-0.4,0-0.7,0-1.1-0.1c-0.3-0.1-0.6-0.2-0.9-0.4
			c-0.3-0.2-0.5-0.4-0.7-0.6c-0.2-0.2-0.4-0.5-0.6-0.8c-0.2-0.3-0.3-0.6-0.4-0.9c-0.1-0.3-0.2-0.7-0.2-1c-0.1-0.3-0.1-0.7-0.1-1
			c0-0.4,0.1-0.9,0.2-1.3c0.1-0.4,0.3-0.9,0.5-1.2c0.2-0.4,0.5-0.7,0.8-1c0.3-0.3,0.7-0.5,1.1-0.7c0.4-0.2,0.8-0.3,1.3-0.3
			c0.3,0,0.6,0,0.8,0.1c0.2,0,0.5,0.1,0.6,0.2c0.2,0.1,0.4,0.2,0.5,0.3c0.2,0.1,0.3,0.2,0.4,0.3c0.1,0.1,0.2,0.2,0.3,0.3
			c0.1,0.1,0.2,0.2,0.2,0.3c0,0.1,0.1,0.2,0.1,0.3c0,0.1,0.1,0.2,0.1,0.3c0,0.1,0,0.1,0,0.2c0,0,0.1,0,0.2,0c0,0,0.1,0,0.1,0
			c0,0,0.1,0,0.1,0c0,0,0.1,0,0.1-0.1c0,0,0,0,0-0.1c0-0.1-0.1-0.9-0.4-2.3c-1-0.2-2.1-0.3-3.3-0.3c-0.4,0-0.9,0-1.3,0.1
			c-0.4,0.1-0.8,0.2-1.1,0.4c-0.3,0.2-0.7,0.4-1,0.6c-0.3,0.2-0.6,0.5-0.8,0.8c-0.2,0.3-0.4,0.7-0.6,1c-0.2,0.4-0.3,0.7-0.4,1.1
			c-0.1,0.4-0.1,0.8-0.1,1.2C57.2,56.2,57.3,56.7,57.4,57.3 M51.5,52.2l1.4,3.8v0c0,0,0,0,0,0c0,0,0,0,0,0c-0.5,0-0.9,0-1.3,0
			c-0.4,0-0.9,0-1.4,0c0,0,0,0,0-0.1L51.5,52.2z M46.7,60.8c0.2,0,0.4,0,0.6,0c0.2,0,0.4,0,0.5,0s0.4,0,0.6,0c0.2,0,0.4,0,0.5,0
			c0.2,0,0.3,0,0.5,0c0.2,0,0.3,0,0.5,0c0,0,0-0.1,0-0.2c0-0.1,0-0.2,0-0.2c0,0-0.1,0-0.2,0c-0.1,0-0.2,0-0.3,0
			c-0.1,0-0.2,0-0.3-0.1c-0.1,0-0.2-0.1-0.2-0.1c-0.1-0.1-0.1-0.1-0.1-0.2c0-0.3,0.1-0.7,0.2-1.1c0.2-0.5,0.4-1.2,0.7-1.9l0,0
			c0,0,0,0,0,0c0,0,0,0,0,0c0.5,0,1,0,1.7,0c0.9,0,1.4,0,1.5,0c0,0,0.1,0,0.1,0.1l0.3,0.7c0.2,0.4,0.4,0.9,0.5,1.4
			c0.2,0.5,0.3,0.8,0.3,1c0,0.1,0,0.2-0.1,0.2c-0.1,0.1-0.2,0.1-0.4,0.1c-0.2,0-0.4,0.1-0.5,0.1c0,0-0.1,0.1-0.1,0.2
			c0,0.1,0,0.2,0.1,0.2c0.2,0,0.4,0,0.6,0c0.2,0,0.4,0,0.6,0c0.2,0,0.4,0,0.6,0c0.2,0,0.4,0,0.6,0c0.2,0,0.4,0,0.6,0
			c0.2,0,0.4,0,0.5,0c0,0,0-0.1,0-0.2s0-0.2-0.1-0.2c-0.1,0-0.2,0-0.3-0.1c-0.1,0-0.3-0.1-0.5-0.2c-0.2-0.1-0.3-0.2-0.3-0.3
			c0,0-0.1-0.3-0.4-1l-3.2-8.4c0,0,0,0,0,0c0,0,0,0-0.1,0c0,0-0.1,0-0.1,0c-0.1,0-0.1,0.1-0.2,0.1c-0.1,0-0.1,0.1-0.2,0.2
			c-0.1,0.1-0.1,0.1-0.1,0.1c-0.6,1.6-1.6,4.2-3,7.7c-0.1,0.4-0.3,0.6-0.4,0.9c-0.1,0.2-0.2,0.4-0.4,0.6c-0.1,0.1-0.2,0.2-0.4,0.2
			c-0.2,0.1-0.4,0.1-0.5,0.1c0,0.1,0,0.1,0,0.2C46.7,60.7,46.7,60.7,46.7,60.8 M33.4,50.8c0.1,0,0.3,0,0.5,0.1
			c0.2,0.1,0.3,0.1,0.4,0.2c0,0,0.1,0.1,0.1,0.1c0,0,0.1,0.1,0.1,0.2c0,0.1,0.1,0.1,0.1,0.1c0,0,0,0.1,0.1,0.2c0,0.1,0,0.2,0.1,0.2
			c0,0,0,0.1,0.1,0.2c0,0.1,0.1,0.2,0.1,0.2c0.2,0.6,0.6,1.9,1.1,3.7c0.6,1.8,1,3.3,1.4,4.4c0,0,0,0.1,0.1,0.2
			c0,0.1,0.1,0.1,0.1,0.1c0.1,0,0.2-0.1,0.3-0.2c0.1-0.1,0.2-0.2,0.2-0.4c0.3-1,0.7-2.2,1.2-3.8c0.5-1.6,0.9-2.8,1.2-3.7l0.2,0.6
			c0.1,0.4,0.3,0.9,0.5,1.5c0.2,0.6,0.4,1.3,0.6,2c0.2,0.7,0.5,1.4,0.7,2.1c0.2,0.7,0.4,1.2,0.6,1.7c0,0,0,0.1,0.1,0.2
			c0,0.1,0.1,0.1,0.1,0.1c0.1,0,0.2-0.1,0.4-0.2s0.2-0.2,0.3-0.4c0.2-0.8,0.5-1.6,0.7-2.5c0.2-0.9,0.5-1.8,0.8-2.7
			c0.3-0.9,0.5-1.8,0.7-2.6c0.1-0.2,0.1-0.4,0.2-0.6c0.1-0.1,0.1-0.3,0.2-0.4c0.1-0.1,0.1-0.2,0.2-0.3c0.1-0.1,0.3-0.2,0.5-0.3
			c0.2-0.1,0.4-0.1,0.5-0.1c0,0,0-0.1,0-0.2c0,0,0-0.1,0-0.1c0-0.1,0-0.1,0-0.2c-0.2,0-0.3,0-0.5,0c-0.2,0-0.3,0-0.5,0
			c-0.1,0-0.3,0-0.5,0c-0.2,0-0.3,0-0.5,0c-0.2,0-0.4,0-0.6,0c-0.3,0-0.4,0-0.5,0c0,0-0.1,0.1-0.1,0.2s0,0.2,0.1,0.2
			c0.1,0,0.1,0,0.2,0c0.1,0,0.2,0,0.3,0.1c0.1,0,0.2,0.1,0.3,0.2c0.1,0.1,0.1,0.2,0.1,0.3c0,0.2-0.1,0.6-0.2,1.1
			c-0.2,0.6-0.4,1.3-0.5,1.9s-0.4,1.3-0.6,2c-0.2,0.8-0.4,1.4-0.6,2c-0.2-0.6-0.5-1.2-0.7-1.9c-0.2-0.7-0.4-1.4-0.7-2
			c-0.2-0.6-0.4-1.2-0.6-1.8c-0.2-0.5-0.3-1-0.4-1.4c-0.1-0.4-0.2-0.6-0.2-0.6c-0.1-0.2-0.1-0.2-0.2-0.2c0,0-0.1,0-0.1,0
			c-0.1,0-0.1,0.1-0.2,0.1c-0.1,0-0.1,0.1-0.1,0.2c0,0.1-0.1,0.1-0.1,0.2c-0.1,0.4-0.5,1.5-1.1,3.4c-0.6,1.9-1,3.3-1.3,4.2
			c-0.2-0.6-0.4-1.3-0.7-2.2c-0.3-0.9-0.5-1.7-0.7-2.3c-0.2-0.7-0.3-1.2-0.4-1.6c-0.1-0.6-0.2-0.9-0.2-1c0-0.1,0-0.2,0.1-0.2
			c0.1-0.1,0.1-0.1,0.2-0.2c0.1,0,0.2-0.1,0.3-0.1c0.1,0,0.2,0,0.2,0c0.1,0,0.1,0,0.1,0c0,0,0-0.1,0-0.2c0-0.1,0-0.2,0-0.3
			c-0.1,0-0.3,0-0.5,0c-0.2,0-0.4,0-0.6,0c-0.2,0-0.4,0-0.6,0c-0.2,0-0.4,0-0.6,0c-0.2,0-0.4,0-0.7,0c-0.3,0-0.5,0-0.6,0
			c0,0,0,0.1,0,0.2S33.4,50.8,33.4,50.8"/>
		<path style="clip-path:url(#SVGID_00000062900055432090970480000007579989847280298943_);fill:#6D767F;" d="M91.9,35.2
			c0-0.6,0-1,0.1-1.2c0,0,0.1-0.1,0.2-0.1s0.2,0,0.3-0.1c0.1,0,0.2,0,0.3,0c0.1,0,0.2,0,0.2,0c0.5,0,0.9,0.1,1.3,0.2
			c0.4,0.1,0.8,0.3,1.2,0.5c0.4,0.3,0.7,0.6,1,0.9c0.3,0.4,0.5,0.8,0.6,1.4c0.2,0.6,0.2,1.2,0.2,1.9c0,0.6-0.1,1.1-0.2,1.6
			c-0.1,0.5-0.3,0.9-0.6,1.3c-0.3,0.3-0.6,0.6-0.9,0.9c-0.4,0.2-0.7,0.4-1.1,0.5c-0.4,0.1-0.8,0.2-1.3,0.2c-0.7,0-1.2-0.1-1.3-0.2
			c0,0-0.1-0.2-0.1-0.4c0-0.3,0-0.5,0-0.7V35.2z M89.3,43.6c0,0.1,0,0.2,0.1,0.2h3.9c0.6,0,1.2-0.1,1.7-0.2c0.5-0.1,1-0.2,1.4-0.4
			c0.4-0.2,0.7-0.4,1-0.7c0.3-0.3,0.6-0.5,0.8-0.8c0.2-0.3,0.4-0.6,0.5-1c0.1-0.4,0.2-0.7,0.3-1.1s0.1-0.7,0.1-1.1
			c0-0.7-0.1-1.4-0.4-2c-0.3-0.6-0.6-1.2-1.1-1.6c-0.5-0.4-1-0.8-1.7-1.1c-0.7-0.3-1.5-0.4-2.3-0.4c-0.2,0-0.6,0-1.2,0
			c-0.5,0-0.9,0-1.1,0c-0.2,0-0.4,0-0.6,0c-0.2,0-0.4,0-0.7,0c-0.3,0-0.5,0-0.6,0c0,0-0.1,0.1-0.1,0.2v0c0,0.1,0,0.2,0.1,0.2
			c0.2,0,0.4,0,0.7,0.1c0.3,0,0.4,0.1,0.4,0.2c0.1,0.2,0.1,0.6,0.1,1.2V42c0,0.6,0,1-0.1,1.2c0,0.1-0.2,0.1-0.4,0.2
			c-0.3,0-0.5,0.1-0.7,0.1C89.4,43.4,89.3,43.5,89.3,43.6 M82.2,35.3c0-0.7,0-1.1,0.1-1.2c0-0.1,0.3-0.2,0.8-0.2
			c0.4,0,0.8,0.1,1.1,0.2c0.3,0.1,0.6,0.3,0.8,0.5c0.2,0.2,0.3,0.5,0.4,0.7c0.1,0.3,0.1,0.6,0.1,0.9c0,0.3-0.1,0.6-0.2,0.9
			c-0.1,0.3-0.3,0.5-0.6,0.7c-0.2,0.2-0.5,0.3-0.8,0.4c-0.3,0.1-0.6,0.2-0.9,0.2h-0.8V35.3z M79.6,43.6c0,0.1,0,0.2,0.1,0.2
			c0.1,0,0.3,0,0.6,0c0.3,0,0.5,0,0.7,0c0.2,0,0.4,0,0.6,0s0.4,0,0.6,0c0.2,0,0.4,0,0.7,0c0.3,0,0.5,0,0.6,0c0,0,0.1-0.1,0.1-0.2
			c0-0.1,0-0.2-0.1-0.2c-0.2,0-0.4,0-0.6-0.1c-0.3,0-0.4-0.1-0.4-0.2c-0.1-0.2-0.1-0.6-0.1-1.2V39H83c0.2,0,0.4,0.1,0.5,0.2
			c0.4,0.7,0.9,1.5,1.4,2.2c0.5,0.8,0.8,1.3,1,1.5c0.1,0.1,0.1,0.1,0.2,0.2c0.1,0.1,0.1,0.1,0.2,0.2c0.1,0,0.1,0.1,0.2,0.1
			c0,0,0.1,0.1,0.2,0.1c0.1,0,0.1,0,0.1,0.1c0,0,0.1,0,0.1,0c0,0,0,0,0,0c0.4,0.1,1.1,0.2,2.2,0.2c0,0,0-0.1,0.1-0.2
			c0,0,0-0.1,0-0.1c0-0.1,0-0.1,0-0.2c-0.4,0-0.8-0.1-1-0.3c-0.3-0.1-0.5-0.4-0.7-0.7c-0.5-0.7-1-1.3-1.4-1.9
			c-0.4-0.5-0.8-1.1-1.2-1.8c0.3-0.1,0.5-0.2,0.7-0.4c0.2-0.2,0.5-0.4,0.7-0.6s0.3-0.5,0.5-0.8c0.1-0.3,0.2-0.6,0.2-0.8
			c0-0.3-0.1-0.7-0.2-1c-0.1-0.3-0.3-0.6-0.5-0.8c-0.2-0.2-0.4-0.4-0.7-0.5c-0.3-0.2-0.5-0.3-0.8-0.3c-0.3-0.1-0.6-0.1-0.8-0.1
			c-0.3,0-0.8,0-1.2,0c-0.5,0-0.8,0-1,0c-0.2,0-0.4,0-0.6,0c-0.2,0-0.4,0-0.7,0c-0.3,0-0.5,0-0.6,0c0,0-0.1,0.1-0.1,0.2v0
			c0,0.1,0,0.2,0.1,0.2c0.2,0,0.4,0,0.6,0.1c0.3,0,0.4,0.1,0.4,0.2c0.1,0.2,0.1,0.6,0.1,1.2V42c0,0.6,0,1-0.1,1.2
			c0,0.1-0.2,0.1-0.4,0.2c-0.3,0-0.5,0.1-0.6,0.1C79.6,43.4,79.6,43.5,79.6,43.6 M73.7,35.3l1.4,3.8v0c0,0,0,0,0,0c0,0,0,0,0,0
			c-0.5,0-0.9,0-1.3,0c-0.4,0-0.9,0-1.4,0c0,0,0,0,0-0.1L73.7,35.3z M68.9,43.8c0.2,0,0.4,0,0.6,0c0.2,0,0.4,0,0.5,0
			c0.2,0,0.4,0,0.6,0c0.2,0,0.4,0,0.5,0c0.2,0,0.3,0,0.5,0c0.2,0,0.3,0,0.5,0c0,0,0-0.1,0-0.2c0-0.1,0-0.2,0-0.2c0,0-0.1,0-0.2,0
			c-0.1,0-0.2,0-0.3,0c-0.1,0-0.2,0-0.3-0.1c-0.1,0-0.2-0.1-0.2-0.1C71.1,43.1,71,43,71,42.9c0-0.3,0.1-0.7,0.2-1.1
			c0.2-0.5,0.4-1.2,0.7-1.9l0,0c0,0,0,0,0,0c0,0,0,0,0,0c0.5,0,1,0,1.7,0c0.9,0,1.4,0,1.5,0c0,0,0.1,0,0.1,0.1l0.3,0.7
			c0.2,0.4,0.4,0.9,0.5,1.4c0.2,0.5,0.3,0.8,0.3,1c0,0.1,0,0.2-0.1,0.2c-0.1,0.1-0.2,0.1-0.4,0.1c-0.2,0-0.4,0.1-0.5,0.1
			c0,0-0.1,0.1-0.1,0.2c0,0.1,0,0.2,0.1,0.2c0.2,0,0.4,0,0.6,0c0.2,0,0.4,0,0.6,0c0.2,0,0.4,0,0.6,0c0.2,0,0.4,0,0.6,0
			c0.2,0,0.4,0,0.6,0c0.2,0,0.4,0,0.5,0c0,0,0-0.1,0-0.2c0-0.1,0-0.2-0.1-0.2c-0.1,0-0.2,0-0.3-0.1c-0.1,0-0.3-0.1-0.5-0.2
			c-0.2-0.1-0.3-0.2-0.3-0.3c0,0-0.1-0.3-0.4-1l-3.2-8.4c0,0,0,0,0,0c0,0,0,0-0.1,0c0,0-0.1,0-0.1,0c-0.1,0-0.1,0.1-0.2,0.1
			c-0.1,0-0.1,0.1-0.2,0.2c-0.1,0.1-0.1,0.1-0.1,0.1c-0.6,1.6-1.6,4.2-3,7.7c-0.1,0.4-0.3,0.6-0.4,0.9c-0.1,0.2-0.2,0.4-0.4,0.6
			c-0.1,0.1-0.2,0.2-0.4,0.2c-0.2,0.1-0.4,0.1-0.5,0.1c0,0.1,0,0.1,0,0.2C68.9,43.7,68.9,43.8,68.9,43.8 M58.4,43.6
			c0,0.1,0,0.2,0.1,0.2c0.1,0,0.3,0,0.6,0c0.3,0,0.5,0,0.7,0c0.2,0,0.4,0,0.6,0c0.2,0,0.4,0,0.6,0c0.2,0,0.4,0,0.7,0
			c0.3,0,0.5,0,0.6,0c0,0,0.1-0.1,0.1-0.3c0-0.1,0-0.2-0.1-0.2c-0.2,0-0.4,0-0.6-0.1c-0.3,0-0.4-0.1-0.4-0.2
			C61,42.9,61,42.5,61,41.9v-3.1l0,0c0.1-0.1,1-0.1,2.5-0.1c0.3,0,0.8,0,1.3,0c0.6,0,0.9,0,1.1,0l0,0c0,0,0,0,0,0c0,0,0,0,0,0v3.1
			c0,0.6,0,1-0.1,1.2c0,0-0.1,0.1-0.3,0.1c-0.2,0-0.3,0.1-0.5,0.1c-0.2,0-0.3,0-0.4,0c0,0-0.1,0.1-0.1,0.2c0,0.1,0,0.2,0.1,0.3
			c0.1,0,0.3,0,0.6,0c0.3,0,0.5,0,0.7,0c0.2,0,0.4,0,0.6,0c0.2,0,0.4,0,0.6,0c0.2,0,0.4,0,0.7,0c0.3,0,0.5,0,0.6,0
			c0,0,0.1-0.1,0.1-0.2v0c0-0.1,0-0.2-0.1-0.2c-0.2,0-0.4,0-0.6-0.1c-0.3,0-0.4-0.1-0.4-0.2c-0.1-0.2-0.1-0.6-0.1-1.2v-6.6
			c0-0.6,0-1,0.1-1.2c0-0.1,0.2-0.1,0.4-0.2c0.3,0,0.5-0.1,0.6-0.1c0,0,0.1-0.1,0.1-0.2v0c0-0.1,0-0.2-0.1-0.2c-0.1,0-0.3,0-0.5,0
			c-0.2,0-0.3,0-0.5,0c-0.1,0-0.3,0-0.4,0c-0.2,0-0.3,0-0.5,0c-0.2,0-0.4,0-0.6,0c-0.2,0-0.4,0-0.7,0c-0.3,0-0.5,0-0.6,0
			c0,0-0.1,0.1-0.1,0.3c0,0.1,0,0.2,0.1,0.2c0.2,0,0.4,0,0.6,0.1c0.3,0,0.4,0.1,0.4,0.2c0,0.2,0.1,0.6,0.1,1.2v2.7c0,0,0,0,0,0.1
			c-1.4,0-2.2,0-2.4,0c-0.1,0-0.9,0-2.5,0l0,0c0,0,0,0,0,0c0,0,0,0,0,0v-2.8c0-0.6,0-1,0.1-1.2c0-0.1,0.2-0.1,0.4-0.2
			c0.3,0,0.5-0.1,0.6-0.1c0,0,0-0.1,0.1-0.2c0-0.1,0-0.2-0.1-0.3c-0.1,0-0.3,0-0.5,0c-0.2,0-0.3,0-0.5,0c-0.1,0-0.3,0-0.4,0
			c-0.2,0-0.3,0-0.5,0c-0.2,0-0.4,0-0.6,0c-0.2,0-0.4,0-0.7,0c-0.3,0-0.5,0-0.6,0c0,0-0.1,0.1-0.1,0.2v0c0,0.1,0,0.2,0.1,0.2
			c0.2,0,0.4,0,0.6,0.1c0.3,0,0.4,0.1,0.4,0.2c0.1,0.2,0.1,0.6,0.1,1.2v6.6c0,0.6,0,1-0.1,1.2c0,0.1-0.2,0.1-0.4,0.2
			c-0.3,0-0.5,0.1-0.6,0.1C58.4,43.4,58.4,43.5,58.4,43.6 M48.2,40.3c0.2,0.5,0.4,1,0.7,1.4c0.3,0.4,0.7,0.8,1.1,1.1
			c0.4,0.3,0.9,0.6,1.5,0.7s1.1,0.3,1.7,0.3c1.4,0,2.5-0.2,3.4-0.7c0.1-0.1,0.2-0.4,0.3-1c0.1-0.6,0.2-1,0.2-1.2
			c-0.1-0.1-0.3-0.1-0.4-0.1c0,0-0.1,0-0.1,0c-0.2,0.8-0.5,1.4-1,1.8c-0.6,0.5-1.2,0.8-2.1,0.8c-0.5,0-1-0.1-1.5-0.3
			c-0.5-0.2-0.8-0.4-1.1-0.8c-0.3-0.3-0.6-0.7-0.8-1.1c-0.2-0.4-0.4-0.9-0.5-1.4c-0.1-0.5-0.2-1-0.2-1.5c0-0.4,0.1-0.9,0.2-1.3
			c0.1-0.4,0.3-0.9,0.5-1.2c0.2-0.4,0.5-0.7,0.8-1c0.3-0.3,0.7-0.5,1.1-0.7c0.4-0.2,0.8-0.3,1.3-0.3c0.3,0,0.5,0,0.8,0.1
			c0.2,0,0.5,0.1,0.6,0.2c0.2,0.1,0.4,0.2,0.5,0.3c0.2,0.1,0.3,0.2,0.4,0.3c0.1,0.1,0.2,0.2,0.3,0.3c0.1,0.1,0.2,0.2,0.2,0.3
			c0,0.1,0.1,0.2,0.1,0.3c0,0.1,0.1,0.2,0.1,0.3c0,0.1,0,0.1,0,0.2c0,0,0.1,0,0.2,0c0,0,0.1,0,0.1,0c0,0,0.1,0,0.1,0
			c0,0,0.1,0,0.1-0.1c0,0,0,0,0-0.1c0-0.1-0.1-0.9-0.4-2.3c-1-0.2-2.1-0.3-3.3-0.3c-0.4,0-0.9,0-1.3,0.1c-0.4,0.1-0.8,0.2-1.1,0.4
			c-0.3,0.2-0.7,0.4-1,0.6s-0.6,0.5-0.8,0.8c-0.2,0.3-0.4,0.7-0.6,1c-0.2,0.4-0.3,0.7-0.4,1.1c-0.1,0.4-0.1,0.8-0.1,1.2
			C47.9,39.3,48,39.8,48.2,40.3 M42.9,43.6c0,0.1,0,0.2,0.1,0.2c0.1,0,0.3,0,0.6,0c0.3,0,0.5,0,0.7,0c0.2,0,0.4,0,0.6,0
			c0.2,0,0.4,0,0.6,0c0.2,0,0.4,0,0.7,0c0.3,0,0.5,0,0.6,0c0,0,0.1-0.1,0.1-0.2v0c0-0.1,0-0.2-0.1-0.2c-0.2,0-0.4,0-0.6-0.1
			c-0.3,0-0.4-0.1-0.4-0.2c-0.1-0.2-0.1-0.6-0.1-1.2v-6.7c0-0.6,0-1,0.1-1.2c0-0.1,0.2-0.1,0.4-0.2c0.3,0,0.5-0.1,0.6-0.1
			c0,0,0.1-0.1,0.1-0.2v0c0-0.1,0-0.2-0.1-0.2c-0.1,0-0.3,0-0.5,0s-0.3,0-0.5,0c-0.1,0-0.3,0-0.4,0c-0.2,0-0.3,0-0.5,0
			c-0.2,0-0.4,0-0.6,0c-0.2,0-0.4,0-0.7,0c-0.3,0-0.5,0-0.6,0c0,0-0.1,0.1-0.1,0.2v0c0,0.1,0,0.2,0.1,0.2c0.2,0,0.4,0,0.6,0.1
			c0.3,0,0.4,0.1,0.4,0.2c0.1,0.2,0.1,0.6,0.1,1.2V42c0,0.6,0,1-0.1,1.2c0,0.1-0.2,0.1-0.4,0.2c-0.3,0-0.5,0.1-0.6,0.1
			C42.9,43.4,42.9,43.5,42.9,43.6 M35.7,35.3c0-0.7,0-1.1,0.1-1.2c0-0.1,0.3-0.2,0.8-0.2c0.4,0,0.8,0.1,1.1,0.2
			c0.3,0.1,0.6,0.3,0.8,0.5c0.2,0.2,0.3,0.5,0.4,0.7s0.1,0.6,0.1,0.9c0,0.3-0.1,0.6-0.2,0.9c-0.1,0.3-0.3,0.5-0.6,0.7
			c-0.2,0.2-0.5,0.3-0.8,0.4c-0.3,0.1-0.6,0.2-0.9,0.2h-0.8V35.3z M33.1,43.6c0,0.1,0,0.2,0.1,0.2c0.1,0,0.3,0,0.6,0
			c0.3,0,0.5,0,0.7,0c0.2,0,0.4,0,0.6,0s0.4,0,0.6,0c0.2,0,0.4,0,0.7,0c0.3,0,0.5,0,0.6,0c0,0,0.1-0.1,0.1-0.2c0-0.1,0-0.2-0.1-0.2
			c-0.2,0-0.4,0-0.6-0.1c-0.3,0-0.4-0.1-0.4-0.2c-0.1-0.2-0.1-0.6-0.1-1.2V39h0.8c0.2,0,0.4,0.1,0.5,0.2c0.4,0.7,0.9,1.5,1.4,2.2
			c0.5,0.8,0.8,1.3,1,1.5c0.1,0.1,0.1,0.1,0.2,0.2c0.1,0.1,0.1,0.1,0.2,0.2c0.1,0,0.1,0.1,0.2,0.1c0,0,0.1,0.1,0.2,0.1
			c0.1,0,0.1,0,0.1,0.1c0,0,0.1,0,0.1,0c0,0,0,0,0,0c0.4,0.1,1.1,0.2,2.2,0.2c0,0,0-0.1,0-0.2c0,0,0-0.1,0-0.1c0-0.1,0-0.1,0-0.2
			c-0.4,0-0.8-0.1-1-0.3c-0.3-0.1-0.5-0.4-0.7-0.7c-0.5-0.7-1-1.3-1.4-1.9c-0.4-0.5-0.8-1.1-1.2-1.8c0.3-0.1,0.5-0.2,0.7-0.4
			c0.2-0.2,0.5-0.4,0.7-0.6s0.4-0.5,0.5-0.8c0.1-0.3,0.2-0.6,0.2-0.8c0-0.3-0.1-0.7-0.2-1c-0.1-0.3-0.3-0.6-0.5-0.8
			c-0.2-0.2-0.4-0.4-0.7-0.5c-0.3-0.2-0.5-0.3-0.8-0.3c-0.3-0.1-0.6-0.1-0.9-0.1c-0.3,0-0.7,0-1.2,0c-0.5,0-0.8,0-1,0
			c-0.2,0-0.4,0-0.6,0c-0.2,0-0.4,0-0.7,0c-0.3,0-0.5,0-0.6,0c0,0-0.1,0.1-0.1,0.2v0c0,0.1,0,0.2,0.1,0.2c0.2,0,0.4,0,0.6,0.1
			c0.3,0,0.4,0.1,0.4,0.2c0.1,0.2,0.1,0.6,0.1,1.2V42c0,0.6,0,1-0.1,1.2c0,0.1-0.2,0.1-0.4,0.2c-0.3,0-0.5,0.1-0.6,0.1
			C33.2,43.4,33.1,43.5,33.1,43.6"/>
		<path style="clip-path:url(#SVGID_00000062900055432090970480000007579989847280298943_);fill:#9EB735;" d="M61.3,134.7
			c2.1,0.2,4.1,0.3,6.2,0.3c37.3,0,67.5-30.2,67.5-67.5c0-10.1-2.2-19.6-6.2-28.2c-8-11.3-18.9-19.4-31.1-24.1
			c15.2,12.4,24.8,31.2,24.8,52.3C122.5,102.7,95.6,131.6,61.3,134.7"/>
	</g>
	<g style="clip-path:url(#SVGID_00000147181146942420879590000000866401974753950864_);">
		<defs>
			<path id="SVGID_00000036249525466520469310000018093034935709154185_" d="M122.5,67.5c0,35.2-26.9,64.1-61.3,67.2
				c2.1,0.2,4.1,0.3,6.2,0.3c37.3,0,67.5-30.2,67.5-67.5c0-10.1-2.2-19.6-6.2-28.2c-8-11.3-18.9-19.4-31.1-24.1
				C112.8,27.6,122.5,46.4,122.5,67.5"/>
		</defs>
		<clipPath id="SVGID_00000038386481699705332620000010081065158256681402_">
			<use xlink:href="#SVGID_00000036249525466520469310000018093034935709154185_"  style="overflow:visible;"/>
		</clipPath>
		<g style="clip-path:url(#SVGID_00000038386481699705332620000010081065158256681402_);">
			<g>
				<defs>
					<rect id="SVGID_00000119083009191950611920000002271639679689901738_" x="-5.3" y="-21" width="176.3" height="180.8"/>
				</defs>
				<clipPath id="SVGID_00000107565062306845436580000015673926763739825559_">
					<use xlink:href="#SVGID_00000119083009191950611920000002271639679689901738_"  style="overflow:visible;"/>
				</clipPath>
				<defs>
					<filter id="Adobe_OpacityMaskFilter" filterUnits="userSpaceOnUse" x="-5.3" y="-21" width="176.3" height="180.8">
						<feColorMatrix  type="matrix" values="1 0 0 0 0  0 1 0 0 0  0 0 1 0 0  0 0 0 1 0"/>
					</filter>
				</defs>
				
					<mask maskUnits="userSpaceOnUse" x="-5.3" y="-21" width="176.3" height="180.8" id="SVGID_00000035499152449761673510000016626216788900120480_">
					<g class="st5">
						
							<linearGradient id="SVGID_00000149348936331652706130000003137675469424130439_" gradientUnits="userSpaceOnUse" x1="-350.7866" y1="373.8521" x2="-349.7866" y2="373.8521" gradientTransform="matrix(20.3105 29.4418 29.4418 -20.3105 -3816.4673 17965.4082)">
							<stop  offset="0" style="stop-color:#FFFFFF"/>
							<stop  offset="1" style="stop-color:#000000"/>
						</linearGradient>
						
							<polygon style="clip-path:url(#SVGID_00000107565062306845436580000015673926763739825559_);fill:url(#SVGID_00000149348936331652706130000003137675469424130439_);" points="
							114.2,-103.4 255.6,101.5 51.6,242.2 -89.8,37.3 						"/>
					</g>
				</mask>
				
					<g style="clip-path:url(#SVGID_00000107565062306845436580000015673926763739825559_);mask:url(#SVGID_00000035499152449761673510000016626216788900120480_);">
					<g>
						<defs>
							<rect id="SVGID_00000039094493407793150510000010166537989507400376_" x="-5.3" y="-21" width="176.3" height="180.8"/>
						</defs>
						<clipPath id="SVGID_00000048490944856513156980000009226309167522869924_">
							<use xlink:href="#SVGID_00000039094493407793150510000010166537989507400376_"  style="overflow:visible;"/>
						</clipPath>
						<path style="clip-path:url(#SVGID_00000048490944856513156980000009226309167522869924_);fill:#686C1E;" d="M122.5,67.5
							c0,35.2-26.9,64.1-61.3,67.2c2.1,0.2,4.1,0.3,6.2,0.3c37.3,0,67.5-30.2,67.5-67.5S104.8,0,67.5,0c-2.1,0-4.2,0.1-6.2,0.3
							C95.6,3.5,122.5,32.3,122.5,67.5"/>
					</g>
				</g>
			</g>
		</g>
	</g>
	<g style="clip-path:url(#SVGID_00000147181146942420879590000000866401974753950864_);">
		<defs>
			<rect id="SVGID_00000062182924992153846660000014394905401524034692_" width="135" height="135"/>
		</defs>
		<clipPath id="SVGID_00000063635601597998690950000016952187500805618821_">
			<use xlink:href="#SVGID_00000062182924992153846660000014394905401524034692_"  style="overflow:visible;"/>
		</clipPath>
		<path style="clip-path:url(#SVGID_00000063635601597998690950000016952187500805618821_);fill:#608DB7;" d="M40,115.1
			C9.5,97.6-2,59.8,12.4,28.5c-1.2,1.7-2.3,3.4-3.4,5.3C-9.6,66,1.5,107.3,33.8,125.9c32.3,18.6,73.6,7.6,92.2-24.7
			c1.1-1.8,2-3.7,2.9-5.5C108.9,123.9,70.5,132.7,40,115.1"/>
	</g>
	<g style="clip-path:url(#SVGID_00000147181146942420879590000000866401974753950864_);">
		<defs>
			<path id="SVGID_00000052796233752913065140000011405041536212666764_" d="M9.1,33.8C-9.6,66,1.5,107.3,33.8,125.9
				s73.6,7.6,92.2-24.7c1.1-1.8,2-3.7,2.9-5.5c-19.9,28.2-58.4,37-88.8,19.4S-2,59.8,12.4,28.5C11.2,30.2,10.1,31.9,9.1,33.8"/>
		</defs>
		<clipPath id="SVGID_00000137094819172872228820000006236136504652367277_">
			<use xlink:href="#SVGID_00000052796233752913065140000011405041536212666764_"  style="overflow:visible;"/>
		</clipPath>
		<g style="clip-path:url(#SVGID_00000137094819172872228820000006236136504652367277_);">
			<g>
				<defs>
					<rect id="SVGID_00000146470811026155625590000001378183399180352149_" x="-33" y="17.8" width="173.4" height="147.3"/>
				</defs>
				<clipPath id="SVGID_00000008836949982519231590000014847615223260163474_">
					<use xlink:href="#SVGID_00000146470811026155625590000001378183399180352149_"  style="overflow:visible;"/>
				</clipPath>
				<defs>
					
						<filter id="Adobe_OpacityMaskFilter_00000010289347982296994070000007620839747903850925_" filterUnits="userSpaceOnUse" x="-33" y="17.8" width="173.4" height="147.3">
						<feColorMatrix  type="matrix" values="1 0 0 0 0  0 1 0 0 0  0 0 1 0 0  0 0 0 1 0"/>
					</filter>
				</defs>
				
					<mask maskUnits="userSpaceOnUse" x="-33" y="17.8" width="173.4" height="147.3" id="SVGID_00000126301691365808781000000013600791712333906360_">
					<g style="filter:url(#Adobe_OpacityMaskFilter_00000010289347982296994070000007620839747903850925_);">
						
							<linearGradient id="SVGID_00000075124987258214757420000003701729360715298953_" gradientUnits="userSpaceOnUse" x1="-359.9444" y1="357.8832" x2="-358.9444" y2="357.8832" gradientTransform="matrix(-41.5833 3.4918 3.4918 41.5833 -16124.79 -13536.8818)">
							<stop  offset="0" style="stop-color:#FFFFFF"/>
							<stop  offset="1" style="stop-color:#000000"/>
						</linearGradient>
						
							<polygon style="clip-path:url(#SVGID_00000008836949982519231590000014847615223260163474_);fill:url(#SVGID_00000075124987258214757420000003701729360715298953_);" points="
							152.7,164.1 -31.8,179.6 -45.3,18.8 139.2,3.3 						"/>
					</g>
				</mask>
				
					<g style="clip-path:url(#SVGID_00000008836949982519231590000014847615223260163474_);mask:url(#SVGID_00000126301691365808781000000013600791712333906360_);">
					<g>
						<defs>
							<rect id="SVGID_00000064346332826408352510000010006318706900707252_" x="-33" y="17.8" width="173.4" height="147.3"/>
						</defs>
						<clipPath id="SVGID_00000076597086211551009380000007466914451796656013_">
							<use xlink:href="#SVGID_00000064346332826408352510000010006318706900707252_"  style="overflow:visible;"/>
						</clipPath>
						<path style="clip-path:url(#SVGID_00000076597086211551009380000007466914451796656013_);fill:#38526C;" d="M40,115.2
							C9.5,97.6-2.1,59.9,12.4,28.5c-1.2,1.7-2.3,3.4-3.4,5.3C-9.6,66.1,1.4,107.4,33.7,126c32.3,18.6,73.6,7.6,92.2-24.7
							c1.1-1.8,2-3.7,2.9-5.5C108.9,123.9,70.5,132.8,40,115.2"/>
					</g>
				</g>
			</g>
		</g>
	</g>
	<g style="clip-path:url(#SVGID_00000147181146942420879590000000866401974753950864_);">
		<defs>
			<rect id="SVGID_00000102512563870312755040000017825344847157998213_" width="135" height="135"/>
		</defs>
		<clipPath id="SVGID_00000132777837673172321820000003244680044731323522_">
			<use xlink:href="#SVGID_00000102512563870312755040000017825344847157998213_"  style="overflow:visible;"/>
		</clipPath>
		<path style="clip-path:url(#SVGID_00000132777837673172321820000003244680044731323522_);fill:#E4B91F;" d="M9.1,33.8
			c1.1-1.8,2.2-3.6,3.4-5.3C6.6,41,5,54.6,7.1,67.5C10.3,48.2,21.7,30.4,40,19.9c30.5-17.6,68.9-8.7,88.8,19.4
			c-0.9-1.9-1.8-3.7-2.9-5.5C107.3,1.5,66-9.6,33.8,9.1C21.5,16.1,12.3,26.4,6.7,38.3C7.4,36.8,8.2,35.3,9.1,33.8"/>
	</g>
	<g style="clip-path:url(#SVGID_00000147181146942420879590000000866401974753950864_);">
		<defs>
			<path id="SVGID_00000157267668687426904040000018401357140262040226_" d="M67.2,0C55.9,0,44.3,3,33.8,9.1
				C21.5,16.1,12.3,26.4,6.7,38.3c0.7-1.5,1.5-3,2.4-4.5c1.1-1.8,2.2-3.6,3.4-5.3C6.6,41,5,54.6,7.1,67.5
				C10.3,48.2,21.7,30.4,40,19.9c30.5-17.6,68.9-8.7,88.8,19.4c-0.9-1.9-1.8-3.7-2.9-5.5C113.5,12.2,90.9,0.1,67.6,0H67.2z"/>
		</defs>
		<clipPath id="SVGID_00000122703359169961663540000014712623937021373575_">
			<use xlink:href="#SVGID_00000157267668687426904040000018401357140262040226_"  style="overflow:visible;"/>
		</clipPath>
		<g style="clip-path:url(#SVGID_00000122703359169961663540000014712623937021373575_);">
			<g>
				<defs>
					<rect id="SVGID_00000008110895369055623660000014892855008569643939_" x="-14.4" y="-35.3" width="160.7" height="153.9"/>
				</defs>
				<clipPath id="SVGID_00000095308591998642297440000003886379804306246333_">
					<use xlink:href="#SVGID_00000008110895369055623660000014892855008569643939_"  style="overflow:visible;"/>
				</clipPath>
				<defs>
					
						<filter id="Adobe_OpacityMaskFilter_00000089551018122870048570000009877774905060657083_" filterUnits="userSpaceOnUse" x="-14.4" y="-35.3" width="160.7" height="153.9">
						<feColorMatrix  type="matrix" values="1 0 0 0 0  0 1 0 0 0  0 0 1 0 0  0 0 0 1 0"/>
					</filter>
				</defs>
				
					<mask maskUnits="userSpaceOnUse" x="-14.4" y="-35.3" width="160.7" height="153.9" id="SVGID_00000167394942476854661870000011454898652823078272_">
					<g style="filter:url(#Adobe_OpacityMaskFilter_00000089551018122870048570000009877774905060657083_);">
						
							<linearGradient id="SVGID_00000113314207483572412520000015416233908343644047_" gradientUnits="userSpaceOnUse" x1="-341.4737" y1="357.2865" x2="-340.4737" y2="357.2865" gradientTransform="matrix(18.8621 -33.6118 -33.6118 -18.8621 18495.6738 -4660.5981)">
							<stop  offset="0" style="stop-color:#FFFFFF"/>
							<stop  offset="1" style="stop-color:#000000"/>
						</linearGradient>
						
							<polygon style="clip-path:url(#SVGID_00000095308591998642297440000003886379804306246333_);fill:url(#SVGID_00000113314207483572412520000015416233908343644047_);" points="
							-80,81.7 24.1,-103.9 212,1.6 107.9,187.2 						"/>
					</g>
				</mask>
				
					<g style="clip-path:url(#SVGID_00000095308591998642297440000003886379804306246333_);mask:url(#SVGID_00000167394942476854661870000011454898652823078272_);">
					<g>
						<defs>
							<rect id="SVGID_00000158031142897316922130000004170388176540144001_" x="-14.4" y="-35.3" width="160.7" height="153.9"/>
						</defs>
						<clipPath id="SVGID_00000168829841165804374480000018048082816684576646_">
							<use xlink:href="#SVGID_00000158031142897316922130000004170388176540144001_"  style="overflow:visible;"/>
						</clipPath>
						<path style="clip-path:url(#SVGID_00000168829841165804374480000018048082816684576646_);fill:#7E6A1A;" d="M9,33.8
							c1.1-1.8,2.2-3.6,3.4-5.3C6.6,41.1,5,54.6,7.1,67.5C10.2,48.2,21.7,30.4,40,19.9c30.5-17.6,69-8.7,88.9,19.5
							c-0.9-1.9-1.8-3.7-2.9-5.5C107.3,1.5,66-9.6,33.7,9.1C21.5,16.1,12.3,26.5,6.6,38.3C7.4,36.8,8.2,35.3,9,33.8"/>
					</g>
				</g>
			</g>
		</g>
	</g>
</g>
</svg>
